<svg width="0" height="0" class="hidden" xmlns="http://www.w3.org/2000/svg" shape-rendering="geometricPrecision" image-rendering="optimizeQuality">
  <symbol fill-rule="evenodd" viewBox="0 0 321 493" id="dark">
    <path d="M161 337c-21 0-41-10-52-28H6c-3 0-6-3-6-6 0-78 69-141 155-145V6c0-3 2-6 6-6 3 0 6 3 6 6v152c85 4 154 67 154 145 0 3-3 6-6 6H212c-11 18-31 28-51 28zM17 443c-1 0-2 0-3-1-3-2-4-6-1-8l73-87c2-3 6-4 8-1 3 2 3 6 1 8l-73 87c-1 2-3 2-5 2zm287 0c-2 0-4 0-5-2l-73-87c-2-2-2-6 1-8 2-3 6-2 8 1l74 87c2 2 1 6-2 8-1 1-2 1-3 1zm-143 50c-4 0-6-3-6-6V372c0-3 2-6 6-6 3 0 6 3 6 6v115c0 3-3 6-6 6z"></path>
    <path d="M56 241c-1 0-2 0-4-1-2-2-3-6-1-8 15-20 45-37 46-37 3-2 7-1 8 2 2 3 1 7-2 9 0 0-29 16-42 33-1 2-3 2-5 2zm68 68c9 10 23 16 37 16 13 0 27-6 36-16h-73z" fill="#fff"></path>
  </symbol>
  <symbol fill-rule="evenodd" viewBox="0 0 232 356" id="light">
    <path d="M116 356c-2 0-4-2-4-4v-83c0-2 2-4 4-4 3 0 5 2 5 4v83c0 2-2 4-5 4zm104-35c-2 0-3-1-3-2l-53-63c-2-2-2-4 0-6 2-1 5-1 6 1l53 63c2 1 1 4-1 6 0 0-1 1-2 1zm-207 0c-2 0-2-1-3-1-2-2-2-5-1-6l53-63c2-2 4-2 6-1 2 2 2 4 1 6l-53 63c-1 1-2 2-3 2zm103-77c-15 0-29-8-37-21H4c-2 0-4-2-4-4 0-56 50-102 112-104V4c0-2 2-4 4-4 3 0 5 2 5 4v111c62 2 111 48 111 104 0 2-2 4-4 4h-74c-9 13-23 21-38 21zm-26-21c6 8 16 12 26 12s20-4 27-12H90zm61-8h72c-2-51-50-91-107-91S11 164 9 215h142zM41 175c-1 0-2-1-3-1-2-2-2-5-1-6 10-14 32-27 33-27 2-1 5 0 6 2s1 5-2 6c0 0-21 11-30 24-1 1-2 2-3 2z"></path>
  </symbol>

  <symbol viewBox="0 0 6304 6304" id="web-demo">
    <path fill-rule="nonzero" d="M2099 535v67c0 294-240 534-535 534h-227c-110 0-201 91-201 201v3631c0 110 91 200 201 200h3631c110 0 200-90 200-200v-228c0-294 240-535 535-535h67c294 0 535 241 535 535v1097c0 257-211 468-468 468H468c-258 0-468-211-468-468V468C0 210 210 0 468 0h1096c295 0 535 240 535 535zM3365 0h2472c257 0 468 210 468 468v2472c0 294-241 534-535 534h-67c-295 0-535-240-535-534v-839c0-27-16-51-41-62-26-10-53-5-73 15L3193 3915c-208 208-548 208-756 0l-47-47c-209-209-209-548 0-756l1861-1862c19-19 25-47 14-72-10-26-34-42-61-42h-839c-295 0-535-240-535-534v-67c0-295 240-535 535-535z"></path>
  </symbol>
  <symbol viewBox="0 0 5066 5066" id="web-see">
    <path fill-rule="nonzero" d="M2490 969c-420 0-801 170-1076 445s-445 656-445 1076 170 800 445 1075 656 445 1076 445 800-170 1075-445 445-655 445-1075c0-421-170-801-445-1076s-655-445-1075-445zm2166 3002l294 294c155 155 155 409 0 564l-121 121c-155 155-408 155-564 0l-294-295c-56-56-141-66-209-26-372 222-807 350-1272 350-688 0-1310-279-1761-729C279 3799 0 3177 0 2490c0-688 279-1310 729-1761C1180 279 1802 0 2490 0c687 0 1309 279 1760 729 450 451 729 1073 729 1761 0 465-127 900-349 1272-41 68-30 153 26 209z"></path>
  </symbol>

  <symbol viewBox="0 0 8942 10476" id="guest-login">
    <path fill-rule="nonzero" d="M1037 6515l-36 81-2 2c-81 183-155 348-155 419 0 30 4 53 12 69 2 5 0 5 1 6l7 5c16 11 56 6 110-6 120-28 270-96 425-169l-1-1 1805-890 2-2c79-39 20-9 104-49l163-79 10-5c164-77 445-211 736-362 204-107 379-200 419-228 6-11 12-23 15-35h2c3-9 4-20 4-33 0-12-1-24-4-33h-2c-3-12-9-23-15-34-39-29-215-122-419-229-290-151-572-285-736-362l-8-3-2077-1023v-1c-154-72-303-140-423-168-54-12-94-17-110-6l-7 5c-1 1 1 1-1 6-8 16-12 40-12 69 0 71 74 236 155 419v2l34 76h0l6 11 1 2c169 372 361 794 361 1269s-191 897-361 1269l-3 8h0zm-807-258h-1l36-81 2-4 5-11c134-294 285-627 285-923s-151-629-285-923h1l-4-9-2-5-35-80h-1C110 3949 0 3702 0 3459c0-154 34-304 98-435 68-141 170-261 301-346v1c242-161 497-176 763-115 201 47 397 137 599 231l8 4 2077 1023h0l761 372c316 165 607 342 710 479l15 18c53 79 95 168 124 260l-1 1c30 96 47 193 47 286s-17 191-47 286l1 1c-29 92-71 182-124 260l-15 18c-103 137-394 315-710 479-252 131-574 284-769 375l-164 80-93 47-1-1-1813 896-6 2c-202 94-398 184-599 231-266 61-521 46-763-115v1c-131-85-233-205-301-346-64-131-98-280-98-435 0-242 109-488 230-760z"></path>
    <path d="M3089 1533c0-268 219-487 487-487h3833c268 0 487 219 487 487v7410c0 268-219 487-487 487H3576c-268 0-487-219-487-487V7784l-1046 516v960c0 670 546 1216 1216 1216h4467c670 0 1216-546 1216-1216V1216C8942 546 8396 0 7726 0H3259c-670 0-1216 546-1216 1216v963l1046 516V1533z"></path>
  </symbol>
  <symbol viewBox="0 0 9697 9697" id="search">
    <path d="M9576 9007L7212 6642c580-699 924-1601 924-2569C8136 1827 6309 0 4073 0 1827 0 0 1827 0 4073c0 2236 1827 4063 4073 4063 968 0 1870-344 2569-924l2365 2364c150 161 408 161 569 0s161-419 0-569zM806 4073c0-1805 1462-3267 3267-3267 1795 0 3257 1462 3257 3267 0 1795-1462 3257-3257 3257-1805 0-3267-1462-3267-3257z"></path>
  </symbol>
  <symbol fill-rule="evenodd" viewBox="0 0 226182 226182" id="close">
    <path d="M60805 10433l52288 52289 52284-52289c13911-13911 36465-13911 50371 0 13911 13907 13911 36461 0 50372l-52283 52288 52283 52284c13911 13906 13911 36465 0 50371-13906 13911-36465 13911-50371 0l-52284-52283-52288 52283c-13906 13911-36465 13911-50372 0-13911-13906-13911-36465 0-50371l52289-52284-52289-52288c-13911-13911-13911-36465 0-50372 13907-13911 36461-13911 50372 0z"></path>
  </symbol>

  <symbol fill-rule="nonzero" viewBox="0 0 770 770" id="footer-telegram">
    <path d="M378 414l-36 37c-4 4-6 8-7 13l-4 28c9-8 18-16 26-24 8-7 20-7 28-1 17 13 34 25 51 37 6 5 14 6 21 3 8-3 13-9 14-16l39-194c2-8-1-16-7-21-7-6-15-7-23-4L220 381l50 17c4 2 8 2 13 0l73-21c10-3 20 1 26 10 5 9 4 20-4 27zm-105 32c-1-1-1-1-2-1l-96-34c-9-3-15-11-15-20v-17c-1-10 5-18 13-21l366-153c8-3 16-2 23 3 6 6 9 14 8 22l-70 342c-1 7-6 13-13 16-8 3-15 2-21-3l-78-57c-8-6-20-5-28 2l-26 23c-7 6-17 8-25 3-5-3-10-5-15-8-9-5-13-14-12-23l8-49c1-12-6-23-17-25zM385 0c52 0 102 10 147 29h0c47 20 90 48 125 84 36 35 64 78 84 125h0c19 45 29 95 29 147s-10 102-29 147h0c-20 47-48 90-84 125-35 36-78 64-125 84h0c-45 19-95 29-147 29s-102-10-147-29h0c-47-20-90-48-125-84-36-35-64-78-84-125h0C10 487 0 437 0 385s10-102 29-147h0c20-47 48-90 84-125 35-36 78-64 125-84h0c45-19 95-29 147-29zm131 68c-40-17-84-26-131-26s-91 9-131 26h0c-42 17-80 42-112 74s-57 70-74 112h0c-17 40-26 84-26 131s9 91 26 131h0c17 42 43 80 74 112 32 31 70 57 112 74h0c40 17 84 26 131 26s91-9 131-26h0c42-17 80-42 112-74s57-70 74-112h0c17-40 26-84 26-131s-9-91-26-131h0c-17-42-42-80-74-112s-70-57-112-74h0z"></path>
  </symbol>
  <symbol fill-rule="nonzero" viewBox="0 0 3588 3588" id="footer-instagram">
    <path d="M1794 1076c97 0 190 20 274 55 88 36 167 90 233 156h0c66 65 119 145 156 233 35 85 55 178 55 274 0 97-20 190-55 274-36 88-90 167-156 233h0c-66 66-145 120-233 156-84 35-177 55-274 55-96 0-189-20-274-55-88-37-168-90-233-156h0c-66-66-120-145-156-233-35-84-55-177-55-274 0-96 20-189 55-274 37-88 90-168 156-233 65-66 145-119 233-156 85-35 178-55 274-55zm196 244c-60-25-126-39-196-39s-136 14-196 39c-62 26-119 64-166 112-48 47-86 104-112 166-25 60-39 126-39 196s14 136 39 196c26 63 64 119 111 166h1c47 48 104 86 166 112 60 25 126 39 196 39s136-14 196-39c63-26 119-64 166-111l1-1c47-47 85-103 111-166 25-60 39-126 39-196s-14-136-39-196c-26-62-64-119-112-166v-1c-47-47-103-85-166-111zm666-592c27 0 53 5 78 15h0c25 11 48 26 67 45 18 18 34 41 44 66h0c10 25 16 51 16 79 0 27-6 53-16 78h0c-10 25-26 48-44 66-19 19-42 34-67 45-24 10-51 16-78 16-28 0-55-6-79-16-25-11-48-26-66-45-19-18-34-41-45-66-10-24-15-51-15-78 0-28 5-55 15-79 11-25 26-48 45-66 18-19 41-34 66-45h0c25-10 51-15 79-15zm39 109c-12-4-25-7-39-7s-28 3-40 7v1c-12 5-23 13-33 22-9 9-17 21-22 33s-8 25-8 40c0 13 3 27 8 39s13 24 22 33c10 9 21 17 33 22s26 8 40 8 27-3 39-8 24-13 33-22c10-9 17-21 23-33h0c4-12 7-25 7-39 0-15-3-28-7-40h0c-6-12-13-24-23-33-9-9-21-17-33-22v-1zM1794 0c242 0 474 49 686 136h0c220 91 418 224 583 390 165 165 298 362 389 582h0c88 212 136 444 136 686s-48 474-136 686h0c-91 220-224 418-389 583s-363 298-583 389h0c-212 88-444 136-686 136s-474-48-686-136h0c-220-91-418-224-582-389-165-165-299-363-390-583h0C49 2268 0 2036 0 1794s49-474 136-686h0c91-220 224-417 390-582 165-166 362-299 582-390h0C1320 49 1552 0 1794 0zm612 315c-188-78-395-121-612-121s-424 43-612 121h0c-195 81-371 200-519 348s-267 324-348 519h0c-78 188-121 395-121 612s43 424 121 612h0c81 195 200 372 348 520 147 147 324 266 519 347v1c188 77 395 120 612 120s424-43 612-120v-1c195-81 372-200 520-347 147-148 266-325 347-520h1c77-188 120-395 120-612s-43-424-120-612h-1c-81-195-200-371-347-519-148-148-325-267-520-348h0z"></path>
  </symbol>
  <symbol fill-rule="evenodd" viewBox="0 0 771 771" id="footer-email">
    <path fill-rule="nonzero" d="M386 0c52 0 102 10 147 29h0c47 20 90 48 125 84 36 35 64 78 84 125h0c19 46 29 96 29 148s-10 102-29 147h0c-20 47-48 90-84 125-35 36-78 64-125 84h0c-45 19-95 29-147 29s-102-10-148-29h0c-47-20-90-48-125-84-35-35-64-78-84-125h0C10 488 0 438 0 386s10-102 29-148h0c20-47 48-90 84-125 35-36 78-64 125-84h0c46-19 96-29 148-29zm318 255L435 524c-6 7-14 12-22 15-9 4-18 6-27 6s-19-2-27-6c-9-3-17-8-23-15L67 255c-16 40-25 84-25 131 0 46 9 91 26 131h0c17 42 43 80 74 112 32 32 70 57 112 75h0c40 16 85 26 132 26 46 0 91-10 131-26h0c42-18 80-43 112-75s57-70 75-112h0c16-40 26-85 26-131 0-47-9-91-26-131zM88 214l279 279c3 3 6 4 8 6 4 1 7 2 11 2 3 0 7-1 10-2 3-2 6-3 8-6l280-279c-15-26-34-50-55-72-32-31-70-57-112-74h0c-40-17-85-26-131-26-47 0-92 9-132 26h0c-42 17-80 43-112 74-21 22-39 46-54 72z"></path>
  </symbol>

  <!-- about -->
  <symbol fill-rule="evenodd" viewBox="0 0 1006 256" id="linkedin">
    <path d="M130 96h38v121h-38V96zm507-4c15 0 28 6 37 15V39h39v178h-35v-16c-9 11-25 18-41 18-31 0-57-23-57-64 0-38 26-63 57-63zm11 34c17 0 30 11 30 29 0 20-13 32-30 32s-30-12-30-32c0-18 13-29 30-29zM508 92c31-1 59 15 61 64v11h-86c1 15 16 24 28 24 9 0 21-7 26-15l27 19v1c-14 19-37 25-56 23-35-2-63-25-63-63 0-36 30-63 63-64zm0 27c11 0 23 7 24 22h-49c1-13 13-22 25-22zm-319 98V96h36v17c7-15 24-21 39-21 32 3 42 22 42 50v75h-38v-64c0-19-7-27-19-27-13 0-23 7-23 33v58h-37zM149 36c12 0 21 10 21 21 0 13-9 22-21 22s-22-9-22-22c0-11 10-21 22-21zM0 217V39h40v142h72v36H0zM326 39h38v106l42-49h47l-49 55 48 66h-47l-41-61v61h-38V39zm444 217h217c11 0 19-10 19-20V20c0-11-8-20-19-20H770c-10 0-20 9-20 20v216c0 10 10 20 20 20z" fill="#2867b2"></path>
    <path fill="#fefefe" d="M810 37c11 0 21 10 21 21 0 13-10 23-21 23-13 0-22-10-22-23 0-11 9-21 22-21zm42 181V97h37v17c7-15 22-21 39-21 31 3 42 23 42 51v74h-38v-64c0-19-7-27-19-27-14 0-23 7-23 33v58h-38zM790 97h38v121h-38V97z"></path>
  </symbol>
  <symbol viewBox="0 0 3595 4077" id="html">
    <path fill="#e44d26" d="M1799 4077h0l1467-404L3595 0H0l329 3673 1467 404h0 1 2z"></path>
    <path fill="#ef6429" d="M1798 3766h0l1243-342 279-3113H1796v3455h0 0 1z"></path>
    <path fill="#eaeaea" d="M1139 2094h657v-448h-697l-40-444h737v-3-448H662l40 448 40 447 40 448z"></path>
    <path fill="#fff" d="M2455 2094l-55 616-602 165v1h-1 0v-1h-1v451h0 0 1 1 0l927-255 87-977 40-448h-357-699v448h659zm437-895l40-448H1796v448h1096z"></path>
    <path fill="#eaeaea" d="M1796 2875l-601-165-36-392H803l67 753 926 255z"></path>
  </symbol>
  <symbol viewBox="0 0 3996 4533" id="css">
    <path fill="#0070ba" d="M1999 4533v-1l1631-449L3996 0H0l366 4083 1630 449v1l2-1 1 1z"></path>
    <path fill="#29a8e0" d="M1999 4187v-1l1382-380 310-3460H1996v3840h1v1l1-1z"></path>
    <path d="M781 1332h1215V835H736zm1215 996v-498h-774-397l45 498h397z" fill="#eaeaea"></path>
    <path fill="#fff" d="M2668 3012l-669 184v1h-1-1v-1h-1v501h1v1l1-1 1 1v-1l1030-283 97-1086 45-498 44-498 45-497H1996v497 4h822l-44 494h-778v498h733z"></path>
    <path fill="#eaeaea" d="M1996 3697v-501l-668-184-39-436H892l75 838z"></path>
  </symbol>
  <symbol viewBox="0 0 4535 5144" id="javascript">
    <path fill="#63a813" d="M2269 5144v-1l1850-510L4535 0H0l415 4633 1851 510v1l1-1 2 1z"></path>
    <path fill="#8acf17" d="M2269 4751v-1l1568-431 351-3926H2266v4357h0v1h1z"></path>
    <path d="M1097 3874l1169 321v-568l-759-209-44-494h-451zM886 1512h1380V948H835z" fill="#eaeaea"></path>
    <path fill="#fff" d="M3198 1516l-170 1902-760 209v1l-1-1v1-1h-1v568 1h0 1 1 0l1169-322 212-2362 50-564H2266v564 4z"></path>
  </symbol>
  <symbol viewBox="0 0 16450 16977" id="laravel">
    <path fill="#ff2d20" d="M16450 3858v57 3651c0 94-56 189-131 226l-3050 1751v3500c0 95-56 170-131 226l-6362 3671c-19 18-38 18-38 18-19 0-19 0-19 19h-75-75c0-19 0-19-19-19 0 0-19 0-38-18L132 13269c-76-56-132-131-132-226V2108c0-19 0-38 19-56v-38c18 0 18-19 18-38l19-19c19-18 19-18 19-37 19 0 19 0 38-19l19-19h0L3331 37c38-18 76-37 132-37 38 0 94 19 132 37l3181 1845h0c19 0 19 19 37 19 0 19 19 19 19 19 19 19 19 19 19 37 19 0 19 19 19 19 19 19 19 38 19 38 0 19 19 19 19 38v56 6814l2635-1506V3915c0-19 0-38 19-57v-37c18 0 18-19 18-38l19-19c19-18 19-18 19-37 19 0 19 0 38-19l18-19h0l3200-1844c38-19 76-38 132-38 38 0 94 19 132 38l3181 1844c19 0 19 19 37 19 0 19 19 19 19 19 19 19 19 19 19 37 19 0 19 19 19 19 19 19 19 38 19 38 0 19 18 19 18 37zm-527 3558V4385l-1110 640-1544 885v3012l2654-1506h0zm-3181 5458V9844l-1524 866-4310 2484v3049l5834-3369zM546 2579v10295l5835 3369v-3049l-3050-1732h0 0c-19-18-19-18-37-18 0-19-19-19-19-38h0c-19 0-19-19-19-19l-19-19h0c-19-19-19-37-19-37 0-19-18-19-18-38h0v-38-18-7134l-1544-885-1110-639h0zM3463 583L809 2108l2654 1543 2654-1543L3463 583h0zm1374 9543l1544-885V2579l-1111 639-1543 885v6663l1110-640zm8169-7736l-2654 1525 2654 1543 2654-1543-2654-1525zm-264 3520l-1543-885-1129-640v3031l1543 884 1129 622V5910zm-6098 6814l3878-2221 1938-1111-2654-1525-3030 1751-2786 1600 2654 1506z"></path>
  </symbol>
  <symbol viewBox="0 0 204.8 105.765" id="mysql">
    <path d="M0 96.334h6.747V69.7l10.445 23.227c1.232 2.8 2.92 3.806 6.228 3.806s4.93-.995 6.164-3.806L40.03 69.7v26.644h6.748v-26.6c0-2.595-1.04-3.85-3.18-4.498-5.125-1.6-8.564-.216-10.12 3.244l-10.25 22.923L13.3 68.48c-1.492-3.46-4.995-4.844-10.12-3.244C1.038 65.885 0 67.14 0 69.734v26.6zm52.386-21.686h6.745v14.68c-.063.798.256 2.67 3.952 2.727 1.886.03 14.554 0 14.672 0v-17.48h6.76c.03 0-.007 23.834-.006 23.936.037 5.878-7.294 7.155-10.672 7.254H52.533v-4.54l21.342-.001c4.342-.46 3.83-2.617 3.83-3.344v-1.77h-14.34c-6.672-.06-10.92-2.973-10.973-6.323-.005-.3.144-14.995-.004-15.14z" fill="#00618a"></path>
    <path d="M89.716 96.334h19.398c2.27 0 4.477-.475 6.23-1.298 2.92-1.34 4.347-3.157 4.347-5.536v-4.93c0-1.947-1.622-3.763-4.8-4.974-1.687-.65-3.763-.995-5.774-.995h-8.175c-2.724 0-4.022-.822-4.346-2.638-.065-.216-.065-.4-.065-.606v-3.07c0-.173 0-.347.065-.563.324-1.384 1.038-1.774 3.438-2 .195 0 .454-.044.65-.044h19.268v-4.497h-18.944c-2.725 0-4.152.173-5.45.562C91.532 67 89.78 69 89.78 72.46v3.936c0 3.028 3.44 5.623 9.212 6.228.65.043 1.298.086 1.946.086h7.007c.26 0 .52 0 .714.044 2.14.173 3.05.562 3.698 1.34.4.4.52.78.52 1.2v3.936c0 .476-.324 1.082-.973 1.6-.584.52-1.557.865-2.855.952-.26 0-.454.043-.713.043h-18.62v4.498zm72.064-7.828c0 4.628 3.438 7.223 10.38 7.742a29.45 29.45 0 0 0 1.946.086h17.582v-4.498h-17.712c-3.957 0-5.45-.995-5.45-3.374v-23.27h-6.747v23.312zm-37.785.234V72.705c0-4.074 2.86-6.545 8.516-7.325a12.94 12.94 0 0 1 1.821-.13h12.807a13.87 13.87 0 0 1 1.886.13c5.656.78 8.516 3.25 8.516 7.325V88.74c0 3.305-1.215 5.074-4.015 6.227l6.646 6h-7.834l-5.377-4.854-5.413.343h-7.216c-1.235 0-2.535-.174-3.966-.564-4.3-1.17-6.37-3.424-6.37-7.152zm7.283-.4c0 .217.065.433.13.694.4 1.864 2.145 2.904 4.8 2.904h6.13l-5.63-5.083h7.834l4.9 4.433c.905-.482 1.5-1.22 1.7-2.167.065-.216.065-.433.065-.65V73.096c0-.173 0-.4-.065-.607-.4-1.733-2.146-2.73-4.746-2.73H136.22c-3 0-4.94 1.3-4.94 3.337v15.256z" fill="#e48e00"></path>
    <g fill="#00618a">
      <path d="M197.624 57.73c-4.147-.112-7.316.273-10.024 1.415-.77.325-1.997.333-2.123 1.298.423.443.49 1.105.825 1.65.647 1.047 1.74 2.45 2.713 3.184 1.064.803 2.16 1.663 3.303 2.36 2.03 1.238 4.296 1.945 6.25 3.184 1.152.73 2.296 1.65 3.42 2.476.555.408.93 1.042 1.65 1.297v-.118c-.38-.483-.477-1.147-.825-1.65l-1.533-1.533c-1.5-2-3.402-3.737-5.425-5.19-1.613-1.158-5.224-2.722-5.897-4.6l-.118-.118c1.144-.13 2.483-.543 3.54-.825 1.773-.475 3.358-.353 5.19-.825l2.477-.708v-.472c-.926-.95-1.586-2.207-2.595-3.066-2.64-2.25-5.523-4.495-8.49-6.37-1.646-1.04-3.68-1.714-5.425-2.595-.587-.296-1.618-.45-2.005-.944-.916-1.168-1.415-2.65-2.122-4-1.48-2.85-2.934-5.964-4.246-8.963-.895-2.045-1.48-4.062-2.594-5.897-5.355-8.804-11.12-14.118-20.048-19.34-1.9-1.11-4.187-1.55-6.605-2.123l-3.892-.236c-.792-.33-1.616-1.3-2.36-1.77-2.958-1.87-10.545-5.933-12.736-.6-1.383 3.373 2.067 6.664 3.302 8.374.866 1.2 1.976 2.543 2.594 3.892.407.886.478 1.775.826 2.713.857 2.3 1.603 4.823 2.712 6.958.56 1.08 1.178 2.218 1.887 3.184.435.593 1.18.854 1.297 1.77-.728 1.02-.77 2.6-1.18 3.892-1.843 5.812-1.148 13.035 1.533 17.337.823 1.32 2.76 4.152 5.425 3.066 2.33-.95 1.8-3.89 2.477-6.486.15-.59.058-1.02.354-1.415v.118l2.123 4.245c1.57 2.53 4.36 5.175 6.722 6.96 1.225.925 2.2 2.525 3.774 3.066v-.118h-.118c-.307-.48-.787-.677-1.18-1.06-.923-.905-1.95-2.03-2.713-3.066-2.15-2.918-4.048-6.11-5.778-9.435-.826-1.587-1.545-3.338-2.24-4.953-.268-.623-.265-1.564-.825-1.887-.763 1.184-1.887 2.14-2.477 3.538-.944 2.234-1.066 4.958-1.415 7.784-.207.074-.115.023-.236.118-1.642-.396-2.22-2.087-2.83-3.538-1.544-3.67-1.83-9.576-.472-13.798.35-1.092 1.94-4.534 1.297-5.543-.307-1.007-1.32-1.6-1.887-2.36-.7-.95-1.402-2.204-1.887-3.302-1.264-2.86-1.854-6.07-3.184-8.963-.636-1.382-1.71-2.78-2.594-4-.978-1.36-2.073-2.364-2.83-4-.27-.585-.636-1.52-.236-2.123a.93.93 0 0 1 .708-.708c.684-.527 2.59.175 3.302.472 1.89.786 3.47 1.534 5.072 2.595.77.5 1.547 1.496 2.476 1.77h1.06c1.66.382 3.52.12 5.07.59 2.742.833 5.198 2.13 7.43 3.538 6.798 4.292 12.355 10.402 16.157 17.7.612 1.173.876 2.294 1.415 3.538 1.087 2.5 2.456 5.093 3.538 7.547 1.08 2.45 2.13 4.92 3.656 6.958.802 1.07 3.9 1.646 5.307 2.24.987.417 2.603.852 3.538 1.415 1.785 1.077 3.515 2.36 5.19 3.54.837.59 3.41 1.883 3.538 2.948z"></path>
      <path d="M144.91 12.798c-.865-.016-1.476.094-2.123.236v.118h.118c.412.848 1.14 1.393 1.65 2.123l1.18 2.476.118-.118c.73-.515 1.065-1.338 1.06-2.595-.293-.308-.336-.694-.59-1.062-.337-.49-1-.768-1.415-1.18z" fill-rule="evenodd"></path>
    </g>
    <path d="M194.855 91.708c0 2.97 2.347 4.972 4.972 4.972s4.972-2.002 4.972-4.972-2.347-4.972-4.972-4.972-4.972 2.002-4.972 4.972zm8.83 0c0 2.254-1.723 3.938-3.86 3.938-2.16 0-3.86-1.684-3.86-3.938s1.698-3.938 3.86-3.938c2.135 0 3.86 1.684 3.86 3.938zm-2.52 2.838h1.113l-1.63-2.492c.875-.093 1.537-.518 1.537-1.552 0-1.154-.73-1.63-2.134-1.63h-2.215v5.675h.955v-2.453h.888l1.485 2.453zm-2.374-3.25v-1.63h1.1c.57 0 1.26.106 1.26.77 0 .795-.623.862-1.34.862h-1.02z" fill="#e48e00" fill-rule="evenodd"></path>
  </symbol>
  <symbol viewBox="0 0 107 94" id="postgresql">
    <path d="M11.2 78.902H6.542v-4.26h4.92c1.8 0 2.702.72 2.702 2.163 0 1.398-.985 2.097-2.955 2.097m3.354-4.3c-.64-.52-1.534-.78-2.684-.78l-6.684.034v10.2h1.347l-.012-4.338h4.973c1.247 0 2.23-.26 2.945-.78s1.075-1.24 1.075-2.163-.32-1.643-.96-2.163zm8.717 7.296a2.09 2.09 0 0 1-.639.867c-.603.534-1.523.8-2.76.8-1.118 0-1.976-.26-2.574-.78s-.898-1.214-.898-2.085c0-.453.078-.856.235-1.207a2.4 2.4 0 0 1 .68-.89c.62-.512 1.47-.768 2.557-.768 2.404 0 3.606.955 3.606 2.864 0 .454-.07.852-.205 1.196m.244-3.76c-.82-.68-2.036-1.02-3.645-1.02-1.52 0-2.696.347-3.524 1.04-.748.628-1.122 1.475-1.122 2.54s.386 1.913 1.16 2.563a3.99 3.99 0 0 0 1.491.761c.567.157 1.233.235 1.997.235 1.6 0 2.82-.336 3.657-1.008.748-.613 1.122-1.464 1.122-2.552 0-1.095-.378-1.95-1.135-2.563zm10.186 4.057c0 1.372-1.354 2.057-4.063 2.057-.828 0-1.525-.048-2.092-.143s-1.027-.254-1.38-.474c-.273-.168-.5-.387-.65-.657a2.75 2.75 0 0 1-.313-1.018l1.26-.01c0 .54.22.937.662 1.193.473.307 1.312.46 2.515.46 1.893 0 2.84-.43 2.84-1.3 0-.503-.317-.85-.952-1.04-.13-.037-.894-.133-2.297-.3l-2.622-.42c-.747-.27-1.12-.755-1.12-1.456 0-.686.334-1.197 1.002-1.532.33-.14.742-.246 1.237-.323s1.068-.115 1.72-.115c2.607 0 3.9.742 3.9 2.227h-1.2c0-1.043-.916-1.565-2.75-1.565-.932 0-1.628.106-2.086.317s-.687.536-.687.974c0 .4.3.704.928.886.362.095 1.194.205 2.496.328 1.166.095 1.965.23 2.4.405.828.292 1.242.788 1.242 1.488zm4.948 1.858l-.513.065-.32.022c-.82 0-1.412-.108-1.775-.324s-.544-.594-.544-1.135v-4.65h-1.495v-.684h1.483l.012-2.197h1.15v2.197h2v.695l-2-.01v4.524c0 .337.098.57.296.698s.55.192 1.055.192c.072.007.153.005.24-.007s.22-.04.398-.082l.012.698zm7.947-1.542a3.52 3.52 0 0 1-1.073.536c-.402.124-.864.186-1.386.186-2.403 0-3.604-.9-3.604-2.7 0-.838.307-1.495.922-1.968s1.48-.7 2.597-.7c1.125 0 1.98.24 2.56.716s.874 1.117.874 1.92c0 .875-.297 1.55-.892 2.023m2.04-5.16H47.5l-.012 1.15c-.506-.467-.868-.762-1.085-.886-.643-.32-1.475-.48-2.496-.48-1.496 0-2.637.3-3.425.93-.748.57-1.122 1.393-1.122 2.472 0 .532.095 1.008.284 1.427a2.86 2.86 0 0 0 .827 1.066c.8.598 1.904.897 3.346.897 1.73 0 2.96-.43 3.684-1.3v1.2c0 .76-.264 1.346-.8 1.762s-1.393.624-2.6.624c-1.134 0-1.942-.142-2.424-.425-.362-.218-.6-.596-.748-1.133h-1.182c.13.75.48 1.294 1.05 1.63.66.386 1.773.58 3.342.58 3 0 4.5-1.012 4.5-3.036v-6.5zm6.217.675a6.64 6.64 0 0 0-.964-.076c-1.888 0-2.832.94-2.832 2.82v3.268H49.93l-.012-6.687 1.15.01v1.193h.06a2.13 2.13 0 0 1 .916-1.069c.458-.235 1.14-.353 2.05-.353h.77v.895zm1.068 2.234c.145-.76.47-1.348.976-1.765.33-.24.703-.422 1.12-.543s.888-.18 1.4-.18c1.02 0 1.854.254 2.5.762s.97 1.083.97 1.727h-6.98m7.092-2.063c-.402-.366-.9-.637-1.496-.812s-1.3-.264-2.087-.264c-1.5 0-2.643.314-3.464.942s-1.23 1.482-1.23 2.563.394 1.938 1.182 2.573c.852.7 2.055 1.05 3.607 1.05.62 0 1.192-.064 1.72-.2s.987-.307 1.38-.54c.692-.45 1.13-1.007 1.315-1.668h-1.242c-.426 1.143-1.487 1.715-3.183 1.715-1.198 0-2.12-.28-2.76-.84-.555-.48-.832-1.1-.832-1.863h8.2c0-1.134-.366-2.024-1.098-2.668z" fill="#231f20"></path>
    <path d="M76.258 81.305c0 1.985-1.764 2.978-5.294 2.978-2.115 0-3.658-.342-4.63-1.026-.796-.562-1.194-1.42-1.194-2.572h1.42c0 1.853 1.467 2.78 4.403 2.78 1.407 0 2.425-.2 3.053-.57.53-.335.796-.86.796-1.575 0-.707-.362-1.203-1.086-1.487-.4-.153-1.412-.346-3.004-.58-2.003-.277-3.3-.554-3.897-.83-.86-.408-1.3-1.1-1.3-2.078 0-.9.366-1.6 1.098-2.034.788-.488 2.14-.733 4.054-.733 3.46 0 5.188 1.042 5.188 3.127h-1.433c0-1.562-1.284-2.342-3.852-2.342-1.288 0-2.23.157-2.826.47-.564.336-.845.828-.845 1.478 0 .68.362 1.157 1.086 1.434.386.16 1.52.383 3.402.668 1.77.24 2.964.522 3.584.843.845.394 1.267 1.077 1.267 2.048zm11.54 1.013a5.75 5.75 0 0 1-1.799.869c-.668.193-1.417.3-2.246.3-1.7 0-3.057-.413-4.1-1.24S78.1 80.307 78.1 78.93c0-1.435.517-2.553 1.55-3.355s2.405-1.202 4.112-1.202c1.73 0 3.092.42 4.082 1.257a3.93 3.93 0 0 1 1.16 1.432c.26.547.374 1.17.374 1.87 0 1.428-.523 2.557-1.57 3.387m.755.676c.74-.474 1.288-1.048 1.642-1.722s.532-1.453.532-2.335c0-1.582-.58-2.85-1.738-3.806-.62-.525-1.368-.915-2.244-1.17s-1.88-.383-3.004-.383c-2.188 0-3.905.48-5.152 1.444s-1.87 2.267-1.87 3.915a4.69 4.69 0 0 0 1.887 3.882c1.257.984 2.978 1.476 5.157 1.476a13.83 13.83 0 0 0 2.23-.157c.634-.105 1.174-.265 1.617-.482l2.1 1.32.876-.73-2.032-1.25zm12.804 1.04H91.66v-10.2l1.334-.022v9.37h8.385l-.012.852z" fill="#367faf"></path>
    <path d="M67.546 49.655c.382-3.185.268-3.652 2.64-3.136l.602.053c1.824.083 4.2-.293 5.612-.945 3.018-1.4 4.807-3.738 1.832-3.124-6.787 1.4-7.254-.898-7.254-.898 7.167-10.634 10.163-24.134 7.577-27.44-7.054-9.013-19.263-4.75-19.468-4.64l-.065.012c-1.342-.278-2.842-.444-4.528-.472-3.07-.05-5.402.805-7.17 2.146 0 0-21.78-8.974-20.768 11.286.216 4.3 6.178 32.612 13.288 24.063 2.6-3.126 5.11-5.77 5.11-5.77 1.247.83 2.74 1.25 4.306 1.1l.12-.103c-.038.388-.02.768.048 1.217-1.832 2.047-1.293 2.406-4.956 3.16-3.705.764-1.528 2.123-.107 2.478 1.723.43 5.71 1.04 8.402-2.73l-.107.43c.72.575.67 4.132.772 6.673s.272 4.913.8 6.312 1.13 5 5.943 3.968c4.023-.862 7.098-2.103 7.38-13.644" fill="#231f20" stroke="#231f20" stroke-width="5.046"></path>
    <path d="M78.233 42.503c-6.788 1.4-7.255-.898-7.255-.898 7.167-10.635 10.163-24.135 7.578-27.44-7.054-9.012-19.264-4.75-19.468-4.64l-.066.012c-1.342-.278-2.842-.444-4.53-.472-3.07-.05-5.4.805-7.17 2.146 0 0-21.782-8.973-20.77 11.286.215 4.3 6.177 32.612 13.288 24.064 2.6-3.126 5.1-5.77 5.1-5.77 1.247.83 2.74 1.25 4.306 1.1l.122-.103c-.038.388-.02.768.05 1.217-1.832 2.047-1.294 2.406-4.956 3.16-3.706.764-1.53 2.123-.108 2.478 1.723.43 5.71 1.04 8.402-2.73l-.107.43c.718.575 1.222 3.74 1.137 6.608s-.14 4.838.425 6.377 1.13 5 5.944 3.968c4.023-.862 6.107-3.096 6.397-6.822.206-2.65.67-2.258.7-4.626l.374-1.12c.43-3.59.068-4.75 2.547-4.21l.602.053c1.824.083 4.21-.293 5.613-.945 3.017-1.4 4.807-3.738 1.832-3.124z" fill="#417ba2"></path>
    <g fill="none">
      <g>
        <path d="M53.06 44.562c-.187 6.682.047 13.4.7 15.046s2.054 4.816 6.87 3.785c4.022-.862 5.486-2.53 6.12-6.214.468-2.7 1.37-10.236 1.485-11.778M47.3 11.063s-21.797-8.9-20.783 11.35c.216 4.3 6.178 32.613 13.3 24.064 2.6-3.126 4.95-5.578 4.95-5.578M59.064 9.437c-.755.237 12.125-4.708 19.444 4.644 2.585 3.304-.4 16.804-7.578 27.44"></path>
        <path d="M70.93 41.52s.467 2.3 7.255.898c2.974-.614 1.184 1.724-1.832 3.125-2.476 1.15-8.026 1.443-8.117-.144-.234-4.096 2.92-2.852 2.694-3.878-.206-.924-1.617-1.832-2.55-4.094-.815-1.975-11.173-17.12 2.873-14.87.515-.106-3.663-13.36-16.808-13.575s-12.7 16.162-12.7 16.162" stroke-linejoin="bevel"></path>
      </g>
      <g>
        <path d="M49.383 42.922c-1.832 2.047-1.293 2.406-4.956 3.16-3.705.764-1.528 2.123-.108 2.478 1.723.43 5.71 1.042 8.402-2.73.82-1.148-.005-2.98-1.13-3.448-.544-.225-1.272-.508-2.208.54z"></path>
        <path d="M49.262 42.886c-.184-1.203.396-2.635 1.017-4.31.934-2.513 3.09-5.028 1.365-13-1.285-5.942-9.904-1.237-9.91-.43s.4 4.084-.144 7.9c-.697 4.98 3.17 9.194 7.622 8.763"></path>
      </g>
    </g>
    <g fill="#fff">
      <path d="M47.212 25.023c-.04.275.504 1.01 1.21 1.108s1.31-.475 1.35-.75-.504-.578-1.21-.677-1.312.045-1.35.32z" stroke-width=".561"></path>
      <path d="M68.725 24.462c.038.275-.504 1-1.21 1.108s-1.31-.475-1.35-.75.505-.578 1.212-.677 1.31.045 1.35.32z" stroke-width=".28"></path>
    </g>
    <path d="M71.253 22.557c.116 2.158-.465 3.63-.538 5.927-.11 3.34 1.592 7.162-.97 10.99" fill="none"></path>
  </symbol>
  <symbol viewBox="0 0 21794 13103" id="php">
    <ellipse fill="#777bb4" cx="10897" cy="6551" rx="10897" ry="6551"></ellipse>
    <path fill="#fff" fill-rule="nonzero" d="M6499 5204c140-148 316-273 528-374s441-152 686-152 463 53 653 158c191 105 339 255 444 449 105 195 158 422 158 683 0 113-12 231-35 356-59 323-176 612-354 867-176 254-392 453-647 595s-522 213-802 213c-246 0-455-50-628-149s-308-223-405-371l-351 1996h-665l835-4744h665l-82 473zm1757 1120c15-74 23-154 23-240 0-260-77-463-230-609-154-146-347-219-581-219-167 0-334 43-499 128-165 86-308 210-429 374-121 163-200 356-239 578-16 73-24 153-24 239 0 261 77 467 231 618 154 152 345 228 575 228 171 0 339-44 505-131 165-88 308-215 429-383 120-167 200-361 239-583zm3291-1646c323 0 582 91 776 272 195 181 292 438 292 773 0 89-10 198-29 327l-339 1896h-659l321-1797c16-109 23-187 23-234 0-213-59-377-178-490-118-113-283-169-493-169-253 0-466 77-639 231-173 153-283 374-330 662v-12l-321 1809h-665l765-4318h665l-263 1476c136-136 298-241 485-315 186-74 383-111 589-111zm2696 526c140-148 316-273 528-374s441-152 686-152 463 53 654 158c190 105 338 255 443 449 105 195 158 422 158 683 0 113-12 231-35 356-59 323-176 612-353 867-177 254-393 453-648 595s-522 213-803 213c-245 0-454-50-627-149s-308-223-405-371l-351 1996h-665l834-4744h666l-82 473zm1757 1120c15-74 23-154 23-240 0-260-77-463-230-609-154-146-347-219-581-219-167 0-334 43-499 128-166 86-309 210-429 374-121 163-200 356-239 578-16 73-24 153-24 239 0 261 77 467 231 618 153 152 345 228 575 228 171 0 339-44 505-131 165-88 308-215 429-383 120-167 200-361 239-583z"></path>
  </symbol>
  <symbol viewBox="0 0 23473 23473" id="restapi">
    <g fill="#de002a">
      <path d="M13168 18685c-417 0-781-26-1171-130-312-78-599-182-859-312-286-131-572-287-859-495-442-312-884-703-1301-1171-468-599-859-1223-1119-1926-338-859-520-1769-520-2706-26-1379 286-2732 884-3878 443-780 1067-1509 1796-2082 234-182 495-364 729-494 26-26 78-52 104-52 468-234 989-52 1223 416 234 469 26 1041-390 1276-131 78-339 208-521 338-520 416-963 937-1275 1509-468 833-703 1874-676 2941 25 728 155 1405 390 2056 208 494 468 963 833 1379 260 338 598 624 936 859 182 129 365 234 547 338 182 78 338 130 520 182 1041 234 2238-78 3305-885 598-442 1119-1015 1509-1665 521-885 885-1926 1015-2967 52-598 79-1223 26-1926-51-988-182-1848-416-2628-390-1353-989-2498-1847-3409-261-312-547-573-833-781-417-312-495-911-183-1327 313-416 885-494 1302-182 390 286 755 624 1119 1015 1041 1119 1795 2524 2264 4164 260 911 416 1899 468 3018 52 833 52 1562-26 2264-182 1327-598 2629-1275 3722-520 858-1197 1613-2004 2212-1145 885-2446 1327-3695 1327z"></path>
      <path d="M7833 22744c-208 0-391-51-546-181-443-313-807-625-1171-990-1068-1145-1848-2602-2291-4241-260-990-442-2030-494-3175-52-677-26-1354 52-2082 130-1353 546-2654 1145-3695 469-833 1119-1588 1874-2212 546-417 1145-755 1770-963 884-338 1873-443 2810-313 338 52 703 131 1041 261h0c52 26 130 52 208 104h26l130 78c234 104 469 260 677 390 26 0 78 52 78 52 989 703 1743 1640 2264 2733 416 937 650 2004 650 3123 27 1196-208 2315-676 3330-599 1276-1588 2369-2811 3071-442 260-1015 104-1249-364-260-442-104-1015 339-1275 858-495 1587-1302 2003-2212 365-755 521-1640 521-2524-26-859-183-1692-495-2369-364-780-937-1483-1639-1977-157-104-312-209-495-313l-104-52c-52-26-78-52-130-52-208-78-390-104-572-130-677-104-1327-26-1926 182a5962.1 5962.1 0 0 0-1249 703c-573 442-1067 1015-1405 1639-495 859-807 1874-911 2967-78 625-78 1223-52 1796 52 1015 208 1925 416 2784 390 1353 1015 2524 1848 3435 286 261 572 521 911 755 416 312 520 911 208 1327-182 260-469 390-755 390zm3930-16681h0 0z"></path>
    </g>
    <path fill="#583689" d="M11737 23473C5257 23473 0 18217 0 11737S5257 0 11737 0s11737 5257 11737 11737-5257 11736-11737 11736zm0-21600c-5439 0-9864 4425-9864 9864 0 5438 4425 9863 9864 9863 5438 0 9863-4425 9863-9863 0-5439-4425-9864-9863-9864z"></path>
  </symbol>
  <symbol viewBox="0 0 6159 6146" id="coreldrawx7">
    <path fill="#5faa44" d="M0 0h6159v6146H0z"></path>
    <path fill="#fff" d="M0 1161c219 177 464 457 676 669l662 655 991 977c129 130 143 198 75 300-157 253-328 69-465-75C1646 3400 164 1885 0 1796v1202c137 88 287 266 417 396 150 143 266 266 416 409 260 260 533 560 806 806 137 116 362 198 533 294l512 273c232 123 1522 949 1106 102l-956-1830-1700-1680C949 1584 130 744 0 655v506h0z"></path>
    <g fill="#afd4a1">
      <path d="M5081 3701H3879l164 724h874l164-724zM2042 0h-212c150 539 635 1331 901 1741 376 574 711 942 1168 1427C3291 2397 2247 847 2042 0zm2438 0v3298h-14c-34 0-75-7-130-7-266-1154-594-1946-737-3291h881zM2882 0h-574c178 778 1181 2670 1857 3230C3640 2342 3162 1154 2882 0h0z"></path>
      <path d="M6159 1789c-368 546-696 908-1140 1379 321-403 765-1024 1140-1645v266zM4439 0v3298h13c34 0 75-7 130-7 266-1154 601-1946 744-3291h-887zm1604 0h116v1154c-403 812-969 1721-1406 2076C5279 2342 5756 1154 6043 0h0z"></path>
    </g>
  </symbol>
  <symbol viewBox="0 0 5614 5514" id="photosop">
    <path fill="#9ac8fd" d="M0 0h5614v5514H0z"></path>
    <path fill="#080047" d="M448 436h4718v4642H448z"></path>
    <path d="M1357 1556s355-13 647-13c299 0 510 69 647 193 137 118 224 311 224 535s-68 411-193 529c-161 168-348 268-678 281-87 6-174 6-174 6v728h-473V1556zm473 1132c56 7 87 7 162 0 255 0 410-155 410-392 0-205-124-379-373-392h-199v784zm1226 617c93 62 323 149 473 149 162 0 224-56 224-143s-50-174-249-243c-342-118-473-255-473-448 0-317 268-560 678-560 199 0 355 68 455 118v380c-75-38-293-131-436-131-125 0-199 50-199 137 0 81 68 124 274 193 317 106 448 267 454 516 0 318-243 567-728 548-162 0-349-68-473-137v-379z" fill="#9ac8fd"></path>
  </symbol>
  <symbol fill="#61dafb" viewBox="175.7 78 490.6 436.9" id="react">
    <path d="M666.3 296.5c0-32.5-40.7-63.3-103.1-82.4 14.4-63.6 8-114.2-20.2-130.4-6.5-3.8-14.1-5.6-22.4-5.6v22.3c4.6 0 8.3.9 11.4 2.6 13.6 7.8 19.5 37.5 14.9 75.7-1.1 9.4-2.9 19.3-5.1 29.4-19.6-4.8-41-8.5-63.5-10.9-13.5-18.5-27.5-35.3-41.6-50 32.6-30.3 63.2-46.9 84-46.9V78c-27.5 0-63.5 19.6-99.9 53.6-36.4-33.8-72.4-53.2-99.9-53.2v22.3c20.7 0 51.4 16.5 84 46.6-14 14.7-28 31.4-41.3 49.9-22.6 2.4-44 6.1-63.6 11-2.3-10-4-19.7-5.2-29-4.7-38.2 1.1-67.9 14.6-75.8 3-1.8 6.9-2.6 11.5-2.6V78.5c-8.4 0-16 1.8-22.6 5.6-28.1 16.2-34.4 66.7-19.9 130.1-62.2 19.2-102.7 49.9-102.7 82.3 0 32.5 40.7 63.3 103.1 82.4-14.4 63.6-8 114.2 20.2 130.4 6.5 3.8 14.1 5.6 22.5 5.6 27.5 0 63.5-19.6 99.9-53.6 36.4 33.8 72.4 53.2 99.9 53.2 8.4 0 16-1.8 22.6-5.6 28.1-16.2 34.4-66.7 19.9-130.1 62-19.1 102.5-49.9 102.5-82.3zm-130.2-66.7c-3.7 12.9-8.3 26.2-13.5 39.5-4.1-8-8.4-16-13.1-24-4.6-8-9.5-15.8-14.4-23.4 14.2 2.1 27.9 4.7 41 7.9zm-45.8 106.5c-7.8 13.5-15.8 26.3-24.1 38.2-14.9 1.3-30 2-45.2 2-15.1 0-30.2-.7-45-1.9-8.3-11.9-16.4-24.6-24.2-38-7.6-13.1-14.5-26.4-20.8-39.8 6.2-13.4 13.2-26.8 20.7-39.9 7.8-13.5 15.8-26.3 24.1-38.2 14.9-1.3 30-2 45.2-2 15.1 0 30.2.7 45 1.9 8.3 11.9 16.4 24.6 24.2 38 7.6 13.1 14.5 26.4 20.8 39.8-6.3 13.4-13.2 26.8-20.7 39.9zm32.3-13a428.56 428.56 0 0 1 13.8 39.8c-13.1 3.2-26.9 5.9-41.2 8 4.9-7.7 9.8-15.6 14.4-23.7 4.6-8 8.9-16.1 13-24.1zM421.2 430c-9.3-9.6-18.6-20.3-27.8-32 9 .4 18.2.7 27.5.7 9.4 0 18.7-.2 27.8-.7-9 11.7-18.3 22.4-27.5 32zm-74.4-58.9c-14.2-2.1-27.9-4.7-41-7.9 3.7-12.9 8.3-26.2 13.5-39.5 4.1 8 8.4 16 13.1 24s9.5 15.8 14.4 23.4zM420.7 163c9.3 9.6 18.6 20.3 27.8 32-9-.4-18.2-.7-27.5-.7-9.4 0-18.7.2-27.8.7 9-11.7 18.3-22.4 27.5-32zm-74 58.9c-4.9 7.7-9.8 15.6-14.4 23.7-4.6 8-8.9 16-13 24a428.56 428.56 0 0 1-13.8-39.8c13.1-3.1 26.9-5.8 41.2-7.9zm-90.5 125.2c-35.4-15.1-58.3-34.9-58.3-50.6s22.9-35.6 58.3-50.6c8.6-3.7 18-7 27.7-10.1 5.7 19.6 13.2 40 22.5 60.9-9.2 20.8-16.6 41.1-22.2 60.6-9.9-3.1-19.3-6.5-28-10.2zM310 490c-13.6-7.8-19.5-37.5-14.9-75.7 1.1-9.4 2.9-19.3 5.1-29.4 19.6 4.8 41 8.5 63.5 10.9 13.5 18.5 27.5 35.3 41.6 50-32.6 30.3-63.2 46.9-84 46.9-4.5-.1-8.3-1-11.3-2.7zm237.2-76.2c4.7 38.2-1.1 67.9-14.6 75.8-3 1.8-6.9 2.6-11.5 2.6-20.7 0-51.4-16.5-84-46.6 14-14.7 28-31.4 41.3-49.9 22.6-2.4 44-6.1 63.6-11 2.3 10.1 4.1 19.8 5.2 29.1zm38.5-66.7c-8.6 3.7-18 7-27.7 10.1-5.7-19.6-13.2-40-22.5-60.9 9.2-20.8 16.6-41.1 22.2-60.6 9.9 3.1 19.3 6.5 28.1 10.2 35.4 15.1 58.3 34.9 58.3 50.6-.1 15.7-23 35.6-58.4 50.6z"></path>
    <circle cx="420.9" cy="296.5" r="45.7"></circle>
  </symbol>
  <symbol viewBox="0 0 512 512" id="github">
    <rect width="512" height="512" fill="#171515" rx="15%"></rect>
    <path fill="#fff" d="M119 255c17 30 49 48 102 53-8 6-17 17-18 30-10 6-29 8-44 3-21-7-29-48-61-42-7 1-6 6 0 10 10 6 21 16 26 30 12 31 37 39 77 33v45c0 14-20 18-20 25 0 3 7 3 12 3 10 0 32-9 32-23 0-12 0-52 1-59 0-15 8-20 8-20s1 82-2 92c-4 13-10 11-10 17 0 9 26 2 35-17 7-15 4-95 3-94h7s0 37 1 53c0 17-1 39 9 50 7 7 29 19 29 8 0-6-12-12-12-29v-79c10 0 8 26 8 26l1 48s-2 18 19 25c8 3 24 3 25-1s-20-11-20-25v-49c0-36-5-49-22-60 53-5 86-18 102-53 10-20 12-44 12-62 0-50-24-67-29-76 7-38-1-55-5-60-14-5-48 12-66 24-30-9-94-8-118 2-44-31-67-26-67-26s-15 27-4 66c-15 18-25 31-26 65 0 27 3 44 15 67z"></path>
  </symbol>
  <symbol viewBox="0 0 129 129" id="svg">
    <path fill="#f90" d="M0 0h129v129H0z"></path>
    <path fill="#de8500" d="M64 64h65v65H64z"></path>
    <path fill="#ffb13b" d="M0 0h64v64H0z"></path>
    <g fill="#f90">
      <circle cx="24" cy="64" r="24"></circle>
      <circle cx="36" cy="36" r="24"></circle>
      <circle cx="64" cy="24" r="24"></circle>
      <circle cx="93" cy="36" r="24"></circle>
      <circle cx="105" cy="64" r="24"></circle>
      <circle cx="93" cy="93" r="24"></circle>
      <circle cx="64" cy="105" r="24"></circle>
      <circle cx="36" cy="93" r="24"></circle>
    </g>
    <path d="M81 24c0-10-7-17-17-17-9 0-16 7-16 17-7-7-18-7-24 0-7 6-7 17 0 23-9 0-17 8-17 17 0 10 8 17 17 17-7 7-7 17 0 24 6 6 17 6 24 0 0 9 7 17 16 17 10 0 17-8 17-17 7 6 18 6 24 0 7-7 7-17 0-24 9 0 17-7 17-17 0-9-8-17-17-17 7-6 7-17 0-23-6-7-17-7-24 0z"></path>
    <path fill="#fff" d="M71 30v19l13-13c0-3 1-5 3-7 3-3 9-3 13 0 3 4 3 9 0 13-2 2-4 3-7 3L80 58h19c1-2 4-3 6-3a8.96 8.96 0 0 1 9 9 8.96 8.96 0 0 1-9 9c-2 0-5-1-6-2H80l13 13c3 0 5 1 7 3 3 3 3 9 0 12-4 4-10 4-13 0-2-1-3-4-3-6L71 80v18c2 2 3 4 3 7 0 5-4 9-10 9a8.96 8.96 0 0 1-9-9c0-3 1-5 3-7V80L45 93c0 2-1 5-3 6-3 4-9 4-13 0-3-3-3-9 0-12 2-2 4-3 7-3l13-13H30c-1 1-4 2-6 2a8.96 8.96 0 0 1-9-9 8.96 8.96 0 0 1 9-9c2 0 5 1 6 3h19L36 45c-3 0-5-1-7-3-3-4-3-9 0-13 4-3 10-3 13 0 2 2 3 4 3 7l13 13V30c-2-2-3-4-3-6a8.96 8.96 0 0 1 9-9c6 0 10 4 10 9 0 2-1 4-3 6h0z"></path>
    <path d="M7 64h115v58H7z"></path>
    <path d="M7 97h115v25H7z"></path>
    <path fill="#3f3f3f" d="M19 70h92c4 0 7 3 7 7v23C82 95 47 89 12 90V77c0-4 3-7 7-7h0z"></path>
    <path fill="#fff" d="M49 104c0-2 0-5-2-7 0-1-1-2-2-3 0-1-1-1-1-1-1-1-2-2-4-3-2 0-4-1-6-1h0 0c-1 0-3 0-4-1h0v-1h-1c0-1-1-3-1-4 0-3 3-6 6-6s5 1 6 3v1c0 1 1 1 1 2h8c0-3-1-7-3-9v-1c-1-1-2-2-3-2s-1-1-1-1h-1c-2-1-4-2-7-2-2 0-4 1-6 2-2 0-3 1-4 3h-1c-2 2-3 5-3 8-1 0-1 1-1 2 0 2 1 3 1 4v1s1 1 1 2c1 1 2 3 3 4s2 2 3 2l1 1c2 1 4 1 6 1s4 1 5 2c0 0 0 1 1 1 0 1 1 2 1 3 0 3-2 5-4 6 0 0-1 1-3 1-1 0-3-1-4-2s-2-3-2-5h-5-4c0 3 1 6 2 8 3 4 8 7 13 7 4 0 7-1 10-3l1-1c2-2 3-3 3-5 1-2 1-4 1-6z"></path>
    <path fill-rule="nonzero" d="M48 104v-3c-1-2-1-3-2-4 0 0 0-1-1-1 0-1-1-1-1-1h0 0 0v-1h-1c0-1-1-1-1-1-1-1-2-1-2-1-1-1-2-1-3-1h-3-1v-1h-1c-1 0-2-1-3-1h0v-1h-1v-1s-1-1-1-2v-2c0-2 1-4 2-5s3-2 5-2 3 0 4 1c1 0 2 1 3 2v1 1c1 0 1 1 1 1h6c0-1 0-2-1-3 0-2-1-3-2-5-1 0-1-1-1-1-1-1-1-1-2-1v-1h0-1-1c0-1-1-1-2-1s-3-1-4-1-2 1-3 1-2 0-3 1c0 0-1 1-2 1l-2 2c-1 1-2 2-2 3-1 1-1 3-1 4v1 1 2 2c0 1 0 1 1 1v1c0 1 1 1 1 2l2 2 1 1c1 1 1 1 2 1 1 1 2 1 3 2h3 0 3c1 1 2 1 3 2h0v1s1 0 1 1c0 0 0 1 1 1v2c0 2-1 3-1 4l-3 3s-1 0-2 1h-2c-1 0-2 0-2-1-1 0-2-1-3-1-1-1-1-2-1-3-1 0-1-1-1-1h-4-2v2c0 1 1 2 1 3 2 2 3 4 5 5s5 2 7 2 3 0 5-1c1 0 3-1 4-2h1v-1l2-2c0-1 1-2 1-3 1 0 1-1 1-2v-3zm2-4c0 1 1 3 1 4s0 2-1 3v3c-1 1-1 2-2 3 0 1-1 2-2 2 0 1 0 1-1 1 0 1 0 1-1 1-1 1-3 2-4 3-2 0-4 1-6 1-3 0-5-1-8-3-2-1-4-3-6-6 0-1-1-2-1-4-1-1-1-2-1-4v-1h1 4 5 1v1c0 1 1 2 1 2 0 1 0 1 1 2l1 1h2 2 1l2-2v-3-1-1l-1-1c-1-1-1-1-2-1 0 0-1-1-2-1h0-3c-2 0-3-1-4-1v-1c-1 0-2 0-2-1-1 0-2-1-2-1h0c-1-1-1-2-2-2 0-1-1-2-1-3l-1-1v-1c0-1-1-2-1-3v-2-1-2c1-1 1-3 2-4 0-1 1-2 2-3v-1h1c0-1 1-1 2-2s1-1 2-1c1-1 2-1 4-2h3 4c1 1 2 1 4 2h1 0v1c1 0 2 1 2 1 1 0 1 1 2 2s2 3 3 5c0 1 1 3 1 5v1h-2-8-2v-1-1-1c-1-1-1-2-2-2-1-1-2-1-3-1s-2 1-3 2-2 2-2 3 0 1 1 2v1h1v1h0 0s1 0 1 1h2 0 2 0 1c2 1 3 1 3 1 1 1 2 1 3 1l2 2 1 1h0 0l1 1c1 1 1 1 1 2 1 1 2 3 2 4zM31 87h0z"></path>
    <path fill="#fff" d="M55 97l1 4 1 3 1 8 2 7h4 5l1-7 2-8 1-3v-4l1-3 2-9v-1l2-9 1-5v-2h-8l-1 2-2 11-3 12v4l-1 1v-1l-1-4-2-11-3-12v-2h-9l1 2 1 5 2 9v1l1 7z"></path>
    <path fill-rule="nonzero" d="M56 96l1 5 1 3 2 7 1 7h3 4l1-6 2-9v-2l1-5 1-2 2-9v-1l2-9 1-6h0-6l-1 1-2 12-2 11-1 4v1h-3v-1l-1-4-2-11-3-12v-1h-6 0l1 5 2 10v1l1 6 1 5zm-1 5l-1-4-1-5-1-7h0l-2-10-2-5v-2-1h1 9 1v1l1 1 2 12 2 11 3-11 2-12v-1l1-1h1 8 2v1l-1 2-1 5-2 10h0l-2 9v3l-1 4-1 3-1 8-2 8v1h-1-5-4-1v-1l-2-8-1-8-1-3z"></path>
    <path fill="#fff" d="M79 88v7 2 7c0 2 1 4 1 6 1 2 2 3 3 4l2 2c3 2 6 3 9 3 6 0 11-3 13-7 2-2 2-5 2-8v-5-1-1-8h-7-8v8h0v1h7 0v6c0 2-1 4-2 5-2 1-3 2-5 2-1 0-2-1-3-1-2-1-3-3-3-6v-3-4-1-13c0-1 0-1 1-2v-1c1-2 3-3 5-3 4 0 7 3 7 6h6 2v-2c0-3-2-6-3-8-1 0-1 0-1-1-1-1-3-2-4-2-2-1-4-2-7-2-2 0-4 1-6 2h-1c-1 0-1 1-1 1-1 0-2 1-3 2v1c-2 2-4 5-4 9h0v4 1z"></path>
    <path fill-rule="nonzero" d="M81 88v7 2 7 3c0 1 0 2 1 3 0 0 0 1 1 2 0 0 1 1 1 2 0 0 1 0 1 1h1c1 1 2 2 4 2 1 1 3 1 4 1 3 0 5-1 7-2s4-3 5-5c1-1 1-2 2-3v-4-5-1-1-6h-6-6v6h0 0 5 1v1h0v6c0 1 0 2-1 3 0 1-1 2-2 3 0 0-1 1-2 1-1 1-2 1-3 1h-2c0-1-1-1-1-1-2-1-2-2-3-3s-1-2-1-4v-3-4-1-13-1-1c0-1 1-1 1-1v-1c1-1 2-2 3-2 1-1 2-1 3-1 2 0 4 1 6 2 1 1 1 2 2 4h5 1v-1c0-1-1-3-1-4-1-1-1-2-2-3h-1v-1s-1-1-2-1c0-1-1-1-2-1 0-1-1-1-2-1s-3-1-4-1-2 1-3 1-2 0-3 1h-1v1c-1 0-1 0-2 1l-1 1c-1 2-2 3-3 4v5h0v4 1zm-3 7v-7-1-3h0v-1c0-2 0-4 1-5 1-2 2-4 3-5v-1c1 0 1-1 2-1 0-1 1-1 1-1s1 0 1-1h1c1-1 2-1 4-2h3 4c1 1 2 1 4 2 0 0 1 0 2 1l2 2s1 0 1 1c1 1 1 2 2 3 1 2 1 3 1 4s1 1 1 2v1 1h-2-2-6-2v-1c0-1 0-2-1-3s-2-2-4-2c0 0-1 0-2 1-1 0-1 1-2 1v1 1h-1v1 13 1 4 3c0 1 1 2 1 3s1 1 2 2h1 1 2c1 0 1-1 2-1 0 0 1-1 1-2v-2-5h-5-1v-1-1h0v-8-1h1 8 7 2v1 8 1 1 5c0 2-1 3-1 5 0 1-1 2-2 4s-3 4-6 5c-2 2-5 3-8 3-1 0-3-1-5-1-2-1-3-2-5-3l-1-1-1-1s-1-1-1-2c-1-1-1-2-2-2 0-1 0-2-1-3v-4-7-2z"></path>
  </symbol>
</svg>