<svg width="0" height="0" class="hidden" xmlns="http://www.w3.org/2000/svg" shape-rendering="geometricPrecision" image-rendering="optimizeQuality" fill-rule="evenodd" xmlnsV="https://vecta.io/nano">
  <symbol viewBox="0 0 9817 8600" id="photo">
    <path stroke="#332c2b" stroke-width="58.548" d="M638 29h8541c328 0 608 280 608 609v7324c0 329-280 609-608 609H638c-329 0-609-280-609-609V638C29 309 309 29 638 29zm7032 1229c-499 0-912 402-912 913 0 499 413 912 912 912 511 0 925-413 925-912 0-511-414-913-925-913zm901 5780V5784L6733 3947c-61-61-134-85-219-85s-158 24-207 85l-790 754 2336 2337h718zm-7325 0h5743L5091 5139 3460 3509c-60-61-133-97-219-97-85 0-158 36-219 97L1246 5261v1777z"></path>
  </symbol>
  <symbol viewBox="0 0 7999 7999" id="verified">
    <path d="M2928 0l1072 600L5072 0l628 1055 1228 17 16 1228 1055 628-600 1072 600 1072-1055 628-16 1228-1228 16-629 1055-1071-600-1072 600-628-1055-1228-16-17-1228L0 5071l600-1071L0 2928l1055-628 17-1228 1228-17L2928 0zm990 5308l1667-2096 38-47c102-177 65-410-103-540-186-149-447-112-596 65L3545 4413l-503-493-37-38c-168-130-410-120-559 38-168 158-168 419 0 577l838 848 47 37c177 140 438 103 587-74z"></path>
  </symbol>
  <symbol viewBox="0 0 586 1912" id="edit">
    <path d="M406 563v984l-113 112-113-112V563c0-28 23-52 52-52h122c28 0 52 24 52 52zM293 1912l63-63 203-202 27-26v-37V250C586 83 439 0 293 0 146 0 0 83 0 250v1334 37l27 26 203 202 63 63zM406 250v29c0 29-24 52-52 52H232c-29 0-52-23-52-52v-29c0-94 226-94 226 0z"></path>
  </symbol>


  <symbol viewBox="0 0 657 592" id="profile">
    <circle cx="328" cy="117" r="117"></circle>
    <path d="M328 276c-55 0-110-7-191-21C59 241 20 353 3 427c-52 220 702 220 651 0-17-74-56-186-135-172-80 14-136 21-191 21z"></path>
  </symbol>
  <symbol viewBox="0 0 848 900" id="setting">
    <path d="M294 802l7 46c5 30 30 52 60 52h126c30 0 55-22 59-52l8-46c4-24 17-44 38-56 21-13 45-15 68-6l43 17c28 11 59-1 73-27l63-110c15-27 9-60-14-79l-35-29c-19-16-30-37-30-62s11-47 30-62l35-30c23-19 29-51 14-78l-63-110c-14-27-45-38-73-27l-43 17c-23 9-47 7-68-6-21-12-34-32-38-57l-8-45c-4-30-29-52-59-52H361c-30 0-55 22-60 52l-7 46c-4 24-17 44-38 56-22 13-45 15-68 6l-43-17c-28-11-59 0-74 27L8 280c-15 27-9 59 14 78l36 30c19 15 29 37 29 62s-10 46-29 62l-36 29c-23 19-29 52-14 79l63 110c15 26 46 38 74 27l43-17c23-9 46-7 68 6 21 12 34 32 38 56zm130-526c95 0 171 78 171 174s-76 174-171 174-172-78-172-174 77-174 172-174z"></path>
  </symbol>
  <symbol viewBox="0 0 656 621" id="stash">
    <path d="M39 363h578c21 0 39-13 39-29V219c0-17-18-30-39-30H39c-21 0-39 13-39 30v115c0 16 18 29 39 29zm221-125h136c18 0 18 31 0 31H260c-18 0-18-31 0-31zM110 26l-82 95c-5 7-6 15-1 22 4 7 13 11 23 11h556c10 0 19-4 23-11 5-7 4-15-1-22l-82-95C532 9 510 0 485 0H171c-25 0-47 9-61 26zM39 621h578c21 0 39-17 39-38V436c0-21-18-37-39-37H39c-21 0-39 16-39 37v147c0 21 18 38 39 38zm221-160h136c18 0 18 40 0 40H260c-18 0-18-40 0-40z"></path>
  </symbol>
  <symbol viewBox="0 0 533 533" id="download">
    <path d="M272 437l67-87c3-3 3-7 1-11-1-3-4-5-7-5l-30 4c-2 0-5-1-6-3-2-2-3-4-3-7l7-115c0-4-1-7-3-10-3-3-6-5-9-5h-45c-4 0-7 2-9 5s-3 6-3 10l6 115c1 3 0 5-2 7s-4 3-6 3l-30-4c-3 0-6 2-8 5-1 4-1 8 1 11l67 87c2 2 4 3 6 3 3 0 5-1 6-3zM1 317c20 109 106 194 215 215 8 2 16 0 23-6s11-13 11-22v-37c0-6-2-11-6-17l-85-118c-7-9 4-23 15-23 18-1 36 6 42-3 1-1 2-5 2-11-1-7-6-12-13-12H29c-9 0-17 4-22 10-6 7-8 15-6 24z"></path>
    <path d="M29 250h172c3 0 6-2 9-4 2-3 3-6 3-10-2-16-3-30-4-37 0-5 1-9 5-13 3-3 8-5 13-5h10c7 0 13-6 13-12V29c0-9-4-17-11-22-7-6-15-8-23-6C107 21 21 107 1 216c-2 8 0 16 6 23 5 7 13 11 22 11zM283 29v140c0 6 5 12 12 12h11c5 0 9 2 13 5 3 4 5 8 4 13 0 7-2 21-3 37-1 4 1 7 3 10 2 2 5 4 9 4h172c9 0 16-4 22-11s8-15 6-23C511 107 426 21 317 1c-9-2-17 0-24 6-6 5-10 13-10 22zm221 254H327c-6 0-12 5-12 12 0 6 0 10 1 11 7 9 25 2 43 3 11 0 21 14 14 23l-85 118c-3 6-5 11-5 17v37c0 9 4 16 10 22 7 6 15 8 24 6a270.96 270.96 0 0 0 215-215c2-9 0-17-6-24-6-6-13-10-22-10z"></path>
  </symbol>
  <symbol viewBox="0 0 657 697" id="purchase">
    <path d="M656 203l-95 287c-8 22-28 37-52 37H205c-24 0-44-15-52-37L47 171 1 32c-2-8-1-15 4-22C9 4 16 0 24 0h54c11 0 20 7 23 17l46 137c4 11 13 17 23 17h462c9 0 15 4 20 10 5 7 6 15 4 22z"></path>
    <circle cx="228" cy="635" r="63"></circle>
    <circle cx="486" cy="635" r="63"></circle>
  </symbol>
  <symbol fill-rule="evenodd" viewBox="0 0 1593 1281" id="transactions">
    <path d="M157 0h1279c87 0 157 71 157 157v966c0 87-70 158-157 158H157c-86 0-157-71-157-158V157C0 71 71 0 157 0zm349 783l96-14c20-3 38 7 46 25 9 21 21 37 38 50 6 5 14 9 22 13V705c-71-20-120-39-146-56-55-38-82-90-82-156 0-60 24-111 71-151 37-32 89-52 157-59v-12c0-32 26-57 58-57h23c31 0 57 25 57 57v13c57 7 102 21 135 43 32 21 56 49 74 85 7 12 7 26 1 38-6 13-17 21-31 24l-86 16c-19 3-37-5-46-22-8-14-18-25-31-34-5-4-10-7-16-9v131c93 22 159 48 196 79 39 33 58 78 58 136 0 64-26 118-79 164-42 36-101 58-175 65v13c0 31-26 57-57 57h-23c-32 0-58-26-58-57v-15c-58-8-107-25-146-52s-68-61-88-101c-6-13-6-26 1-39 6-12 17-20 31-23zm340 82c19-4 34-11 46-20 16-12 24-28 24-49 0-14-4-25-13-34-9-8-28-16-57-23v126zM708 418c-15 3-28 8-38 14-14 10-21 22-21 37 0 13 6 25 18 34 7 5 21 11 41 17V418z"></path>
  </symbol>
  <symbol viewBox="0 0 5329 7234" id="pay">
    <path d="M5156 5069c153-305 161-665-96-898 112-345 16-762-329-890 65-217 81-449-32-642-104-168-304-216-489-208 201-433 505-978 906-1371l56-57-48-64c-32-40-810-1050-1796-745l-64 24 8 64c0 24 128 1772-249 2550-32 16-64 40-96 56-56-168-120-337-200-497-153-369-401-866-738-1283 160-145 80-369 16-489 208-185 521-393 874-434 40 105 120 273 264 329 0-136-7-216-7-216l-17-145 137-40c56-16 112-32 160-40l-56-16c-978-305-1756 706-1788 746l-48 64 56 56c433 417 754 1011 954 1460-601 200-826 722-1018 1179-129 312-249 593-465 697l-9-24-72-200L0 4347l938 2887 979-320-57-169c875-256 1797-361 2695-569 273-72 561-136 714-393 128-217 32-513-113-714zM529 4813l-96-281 289-96 96 288-289 89zm2895-2903c32 104 121 216 257 272 192 97 417 48 481-96 72-152-32-345-233-441-200-88-417-48-489 96 32-401 32-802 24-1082 201 0 305-217 353-337 353 40 666 248 882 425-64 128-144 353 16 497-320 393-553 850-713 1211-257 40-498 144-738 257 80-241 128-522 160-802zm-874 497c-8 0-8 8-8 8v-24c0 8 0 16 8 16zm2334 3304c-233 144-570 184-834 240-746 153-1556 249-2286 457l-609-1812c345-144 545-537 697-890 161-385 337-794 770-954l121 409c24 80 120 96 184 64 345-193 722-401 1123-465h8c8-8 16-8 24-8 120-16 313-32 377 104 40 104 24 224 8 329-16 64-48 152-56 168-24 64 0 169 88 177 313 32 361 392 240 633-24 48-16 120 32 144 249 185 209 465 65 706-16 32-16 88 8 120 136 161 264 433 40 578zM2767 1509c-193 96-297 288-233 441 72 144 281 192 481 104 32-16 64-32 88-56 16-161 33-329 40-497-96-56-240-56-376 8z"></path>
  </symbol>
  <symbol viewBox="0 0 548 581" id="logout">
    <rect x="252" width="296" height="581" rx="42" ry="84"></rect>
    <path d="M174 273l42-81c14-25-42-68-74-41L17 255c-23 20-23 51 0 70l125 104c32 27 88-16 74-41l-42-80c-6-12-6-24 0-35z"></path>
  </symbol>

  <symbol viewBox="0 0 558 742" id="arrow_top">
    <path d="M317 731c-2 7-8 11-16 11h-5c-14-5-20-5-34 0-9 2-18-2-21-11-2-8 2-17 11-20 21-6 34-6 54 0 9 3 13 12 11 20zm227-201c-15 23-43 36-73 36-26 0-55-13-86-27-35-16-70-33-106-33-35 0-71 17-106 33-30 14-60 27-86 27-30 0-57-13-73-36-30-43-6-91 14-134l110-225c42-90 70-141 89-155 15-10 34-16 52-16s37 6 52 16c20 14 47 65 90 155 5 12 109 225 109 225 21 43 44 91 14 134zm-43-121l-96-195c-3-7-8-17-14-29-18-38-62-130-78-142-10-7-22-11-34-11-11 0-24 4-34 11-16 12-60 104-78 142L57 409c-18 39-35 75-16 103 9 14 27 22 46 22s45-12 73-25c36-16 77-35 119-35s83 19 120 35c27 13 53 25 72 25 20 0 37-8 46-22 19-28 2-64-16-103zm-94 241c-5 13-16 23-28 28-6 3-12 4-18 4-7 0-14-1-20-5-52-24-72-24-124 0-12 6-25 6-37 1-13-5-23-15-28-28-11-26 0-57 25-68 80-37 124-37 204 0 25 11 36 42 26 68zm-39-38c-71-33-107-33-178 0-9 4-13 16-9 26 3 5 6 9 10 11 3 0 7 1 12-1 31-14 54-22 76-22s45 8 76 22c5 2 9 1 12 1 4-2 8-6 10-11 4-10 0-22-9-26z"></path>
  </symbol>
  <symbol viewBox="0 0 5607 5607" id="web-add">
    <path fill-rule="nonzero" d="M1201 3800l1423-1037c108-79 252-79 359 0l1423 1037c37 27 83 31 125 12 41-20 66-58 66-103V1146c0-95-80-172-179-172H1189c-98 0-178 77-178 172v2563c0 45 24 83 66 103 41 19 88 15 124-12zm1423 183L477 5548c-92 68-208 78-312 28C62 5527 0 5431 0 5320V401C0 180 187 0 416 0h4775c230 0 416 180 416 401v4919c0 111-61 207-164 256-104 50-220 40-312-28L2983 3983c-107-79-251-79-359 0z"></path>
  </symbol>
  <symbol viewBox="0 0 5465 6266" id="web-rmv">
    <path d="M281 1300h4904c116 0 215-75 259-196 43-121 19-253-64-345l-224-248c-55-59-120-89-196-89H3807c-108 0-200-64-249-173l-34-76C3475 64 3382 0 3274 0H2191c-108 0-201 64-249 173l-35 76c-49 109-141 173-249 173H505c-76 0-141 30-195 89L85 759C2 851-22 983 21 1104c44 121 143 196 260 196z"></path>
    <path fill-rule="nonzero" d="M1601 3119l234 1736c27 200 205 348 420 348h955c215 0 393-148 420-348l234-1736c16-118-19-225-102-314-84-88-192-134-318-134H2021c-126 0-234 46-318 135-83 89-118 195-102 313zM825 1608h3815c146 0 273 54 370 158 97 103 137 228 119 366l-502 3727c-32 234-240 407-490 407H1328c-250 0-458-173-490-407L336 2132c-18-138 22-263 119-366 97-104 224-158 370-158z"></path>
  </symbol>
</svg>