<svg width="0" height="0" class="hidden" xmlns="http://www.w3.org/2000/svg" shape-rendering="geometricPrecision" image-rendering="optimizeQuality" fill-rule="evenodd" xmlnsV="https://vecta.io/nano">
  <symbol viewBox="0 0 14799 10941" id="profile">
    <path fill-rule="nonzero" d="M11811 6943c1182 720 2172 1717 2881 2897 139 231 142 498 10 733-133 234-364 369-633 369h-86c-261 0-485-127-621-350-615-1011-1480-1853-2509-2441-118-67-259-52-361 37-824 727-1907 1169-3093 1169-1185 0-2268-442-3093-1169-101-89-242-104-360-37-1029 588-1895 1430-2510 2441-135 223-359 350-621 350h-85c-269 0-500-135-633-369-132-235-129-502 10-733 709-1180 1698-2177 2881-2897 134-81 186-247 124-391-252-573-391-1207-391-1874 0-1291 524-2461 1370-3308C4938 524 6107 0 7399 0s2462 524 3308 1370c847 847 1371 2017 1371 3308 0 667-140 1301-391 1874-63 144-10 310 124 391zM9628 2450c-571-570-1358-923-2229-923-870 0-1658 353-2228 923s-923 1358-923 2228c0 871 353 1659 923 2229s1358 923 2228 923c871 0 1658-353 2229-923 570-570 923-1358 923-2229 0-870-353-1658-923-2228z"></path>
  </symbol>
  <symbol viewBox="0 0 20202 15307" id="email">
    <path fill-rule="nonzero" d="M7815 11879L1947 6012v5644c0 468 192 894 501 1203 310 309 735 501 1203 501h12900c468 0 894-192 1203-501s501-735 501-1203V6012l-5868 5867c-627 627-1456 941-2286 941v4c-828 0-1657-315-2286-945zm10402-8583c-70-326-235-619-463-848-309-309-735-501-1203-501H3651c-468 0-893 192-1203 501-228 229-393 522-463 848l7207 7207c249 249 579 374 909 374v3a1283.7 1283.7 0 0 0 909-377l7207-7207zM0 3661v-10c0-1005 410-1918 1072-2579C1733 411 2646 0 3651 0h12900c1005 0 1918 411 2580 1072 661 661 1071 1574 1071 2579v10 404 7591c0 1005-410 1919-1071 2580-662 661-1575 1071-2580 1071H3651c-1005 0-1918-410-2579-1071C410 13575 0 12661 0 11656V3661z"></path>
  </symbol>
  <symbol viewBox="0 0 42503 58620" id="request">
    <path d="M10667 23068c-4106 5651 530 14606-7583 21026-575 456-881 1088-881 1822v4866c0 1280 1043 2324 2323 2324h9283c298 0 550 199 617 490 1558 6699 12093 6699 13651 0 67-291 319-490 617-490h9283c1280 0 2324-1044 2324-2324v-4866c0-734-307-1366-882-1822-8113-6420-3477-15375-7582-21026-1227-1688-2853-3072-4739-4016-347-173-559-494-582-881-474-7863-10055-7863-10529 0-23 387-235 708-581 881-1887 944-3513 2328-4739 4016zm8570 30038h4029c269 0 498 158 593 409s28 521-173 699c-1295 1144-3574 1144-4869 0-201-178-268-448-173-699s324-409 593-409zM6638 49514c-465 0-844-379-844-844v-1283c0-465 379-845 844-845h29227c465 0 844 380 844 845v1283c0 465-379 844-844 844H6638zm2024-6563c4506-6024 1696-13358 4908-17778 1514-2084 3098-2877 5276-3622 434-149 714-540 714-999v-2968c0-2221 3383-2221 3383 0v2968c0 459 280 850 715 999 2177 745 3761 1538 5275 3622 3212 4420 402 11754 4908 17778H8662z"></path>
    <path d="M19622 7453V1396c0-768 628-1396 1396-1396h467c768 0 1396 628 1396 1396v6057c0 769-628 1397-1396 1397h-467c-768 0-1396-628-1396-1397zM4691 16900L408 12617c-544-544-544-1431 0-1974l329-330c544-543 1431-543 1974 0l4284 4284c544 544 544 1430 0 1974l-330 329c-543 544-1430 544-1974 0zm30817-2303l4284-4284c543-543 1430-543 1974 0l329 330c544 543 544 1430 0 1974l-4283 4283c-544 544-1431 544-1974 0l-330-329c-544-544-544-1430 0-1974z" fill-rule="nonzero"></path>
  </symbol>
</svg>