<svg width="0" height="0" class="hidden" xmlns="http://www.w3.org/2000/svg" shape-rendering="geometricPrecision" image-rendering="optimizeQuality">
  <symbol fill-rule="evenodd" viewBox="0 0 856 583" id="password">
    <path d="M833 221C729 85 586 0 428 0S127 85 23 221c-31 40-31 101 0 141 104 137 247 221 405 221s301-84 405-221c31-40 31-101 0-141zm-405-64c61 0 111 60 111 135 0 74-50 134-111 134s-111-60-111-134c0-75 50-135 111-135z"></path>
  </symbol>
  <symbol fill-rule="evenodd" viewBox="0 0 473 473" id="close">
    <path fill-rule="nonzero" d="M84 9l153 152L389 9c11-12 30-12 41 0l35 34c11 12 11 30 0 41L313 237l152 152c11 11 11 30 0 41l-35 35c-11 11-30 11-41 0L237 313 84 465c-11 11-29 11-41 0L9 430c-12-11-12-30 0-41l152-152L9 84C-3 73-3 55 9 43L43 9C55-3 73-3 84 9z"></path>
  </symbol>
  <symbol fill-rule="evenodd" viewBox="0 0 321 493" id="dark">
    <path d="M161 337c-21 0-41-10-52-28H6c-3 0-6-3-6-6 0-78 69-141 155-145V6c0-3 2-6 6-6 3 0 6 3 6 6v152c85 4 154 67 154 145 0 3-3 6-6 6H212c-11 18-31 28-51 28zM17 443c-1 0-2 0-3-1-3-2-4-6-1-8l73-87c2-3 6-4 8-1 3 2 3 6 1 8l-73 87c-1 2-3 2-5 2zm287 0c-2 0-4 0-5-2l-73-87c-2-2-2-6 1-8 2-3 6-2 8 1l74 87c2 2 1 6-2 8-1 1-2 1-3 1zm-143 50c-4 0-6-3-6-6V372c0-3 2-6 6-6 3 0 6 3 6 6v115c0 3-3 6-6 6z"></path>
    <path d="M56 241c-1 0-2 0-4-1-2-2-3-6-1-8 15-20 45-37 46-37 3-2 7-1 8 2 2 3 1 7-2 9 0 0-29 16-42 33-1 2-3 2-5 2zm68 68c9 10 23 16 37 16 13 0 27-6 36-16h-73z" fill="#fff"></path>
  </symbol>
  <symbol fill-rule="evenodd" viewBox="0 0 858 878" id="google">
    <path fill="#fbbc05" d="M192 520c-8-26-12-53-12-81 0-29 4-56 13-82L45 244C16 303 0 369 0 439s16 136 45 194l147-113z"></path>
    <path fill="#ea4335" d="M193 357c34-103 131-177 246-177 62 0 117 21 161 57l128-127C650 42 550 0 439 0 265 0 116 99 45 244l148 113z"></path>
    <path fill="#4285f4" d="M439 359v170h235c-12 57-43 102-89 131l140 108c80-75 133-186 133-329 0-26-4-54-10-80H439z"></path>
    <path fill="#34a853" d="M585 660c-40 25-90 38-146 38-115 0-212-74-246-178L45 633c71 145 220 245 394 245 107 0 209-38 286-110L585 660z"></path>
  </symbol>
  <symbol fill-rule="evenodd" viewBox="0 0 232 356" id="light">
    <path d="M116 356c-2 0-4-2-4-4v-83c0-2 2-4 4-4 3 0 5 2 5 4v83c0 2-2 4-5 4zm104-35c-2 0-3-1-3-2l-53-63c-2-2-2-4 0-6 2-1 5-1 6 1l53 63c2 1 1 4-1 6 0 0-1 1-2 1zm-207 0c-2 0-2-1-3-1-2-2-2-5-1-6l53-63c2-2 4-2 6-1 2 2 2 4 1 6l-53 63c-1 1-2 2-3 2zm103-77c-15 0-29-8-37-21H4c-2 0-4-2-4-4 0-56 50-102 112-104V4c0-2 2-4 4-4 3 0 5 2 5 4v111c62 2 111 48 111 104 0 2-2 4-4 4h-74c-9 13-23 21-38 21zm-26-21c6 8 16 12 26 12s20-4 27-12H90zm61-8h72c-2-51-50-91-107-91S11 164 9 215h142zM41 175c-1 0-2-1-3-1-2-2-2-5-1-6 10-14 32-27 33-27 2-1 5 0 6 2s1 5-2 6c0 0-21 11-30 24-1 1-2 2-3 2z"></path>
  </symbol>
</svg>