<svg width="0" height="0" class="hidden" xmlns="http://www.w3.org/2000/svg" shape-rendering="geometricPrecision" image-rendering="optimizeQuality">
  <symbol viewBox="0 0 9817 8600" id="photo">
    <path stroke="#332c2b" stroke-width="58.548" d="M638 29h8541c328 0 608 280 608 609v7324c0 329-280 609-608 609H638c-329 0-609-280-609-609V638C29 309 309 29 638 29zm7032 1229c-499 0-912 402-912 913 0 499 413 912 912 912 511 0 925-413 925-912 0-511-414-913-925-913zm901 5780V5784L6733 3947c-61-61-134-85-219-85s-158 24-207 85l-790 754 2336 2337h718zm-7325 0h5743L5091 5139 3460 3509c-60-61-133-97-219-97-85 0-158 36-219 97L1246 5261v1777z"></path>
  </symbol>
  <symbol viewBox="0 0 7999 7999" id="verified">
    <path d="M2928 0l1072 600L5072 0l628 1055 1228 17 16 1228 1055 628-600 1072 600 1072-1055 628-16 1228-1228 16-629 1055-1071-600-1072 600-628-1055-1228-16-17-1228L0 5071l600-1071L0 2928l1055-628 17-1228 1228-17L2928 0zm990 5308l1667-2096 38-47c102-177 65-410-103-540-186-149-447-112-596 65L3545 4413l-503-493-37-38c-168-130-410-120-559 38-168 158-168 419 0 577l838 848 47 37c177 140 438 103 587-74z"></path>
  </symbol>
  <symbol viewBox="0 0 586 1912" id="edit">
    <path d="M406 563v984l-113 112-113-112V563c0-28 23-52 52-52h122c28 0 52 24 52 52zM293 1912l63-63 203-202 27-26v-37V250C586 83 439 0 293 0 146 0 0 83 0 250v1334 37l27 26 203 202 63 63zM406 250v29c0 29-24 52-52 52H232c-29 0-52-23-52-52v-29c0-94 226-94 226 0z"></path>
  </symbol>
</svg>
