<svg width="0" height="0" class="hidden" xmlns="http://www.w3.org/2000/svg" shape-rendering="geometricPrecision" image-rendering="optimizeQuality">
    <symbol fill-rule="evenodd" viewBox="0 0 5401 4719" id="home">
        <path d="M224 3244l1933-1933c299-299 788-299 1087 0l1933 1933c299-299 299-788 0-1087L3244 224c-299-299-788-299-1087 0L224 2157c-299 299-299 788 0 1087zm320 456v523c0 273 223 496 496 496h3321c273 0 496-223 496-496v-523L3244 2086c-299-299-788-299-1087 0L544 3700z"></path>
    </symbol>
    <symbol fill-rule="evenodd" viewBox="0 0 540 465" id="courses">
        <path d="M285 24C332 1 449 0 506 0c19 0 34 16 34 34v370c0 10-3 18-10 24-7 7-15 10-24 10-58 0-174 2-221 24-10 5-20 5-30 0-47-22-163-24-221-24-9 0-17-3-24-10-7-6-10-14-10-24V25C0 11 11 0 24 0h20c14 0 25 11 25 24v203c0 6 3 11 9 13 5 3 12 1 16-3l1-1c6-6 15-6 21 0l1 1c5 4 11 5 16 3 6-2 9-7 9-13V40c0-10 4-19 12-25 8-7 17-10 27-9 30 4 57 10 74 18 10 4 20 4 30 0zm61 168h118c6 0 12 5 12 12h0c0 7-6 12-12 12H346c-6 0-12-5-12-12h0c0-7 6-12 12-12zm0-64h118c6 0 12 6 12 13h0c0 6-6 12-12 12H346c-6 0-12-6-12-12h0c0-7 6-13 12-13zm0 191h118c6 0 12 5 12 12h0c0 7-6 12-12 12H346c-6 0-12-5-12-12h0c0-7 6-12 12-12zm0-64h118c6 0 12 6 12 13h0c0 6-6 12-12 12H346c-6 0-12-6-12-12h0c0-7 6-13 12-13z"></path>
    </symbol>
    <symbol fill-rule="evenodd" viewBox="0 0 541 695" id="certificates">
        <path d="M231 518c11 11 24 16 39 16 16 0 29-5 40-16l21-21c12-12 28-18 45-16l29 2c16 1 29-3 41-13s19-22 20-38l3-30c1-17 9-31 23-41l25-17c12-9 20-21 23-36s-1-29-9-42l-18-24c-9-14-12-30-8-47l8-29c4-15 2-29-6-42-7-13-19-22-34-26l-29-8c-16-4-29-15-36-30l-12-27c-7-14-18-24-32-29-15-6-29-5-43 1l-27 13c-15 7-32 7-47 0L220 5c-28-13-62 0-75 28l-12 27c-8 15-20 26-37 30l-29 8c-14 4-26 13-34 26-7 13-9 27-5 42l8 29c4 17 1 33-9 47l-17 24c-9 13-12 27-9 42s10 27 23 36l24 17c15 10 23 24 24 41l3 30c1 16 8 28 20 38 11 10 25 14 40 13l30-2c17-2 33 4 45 16l21 21zm-24 177c-6-1-11-3-15-6l-18-10c-9-6-22-9-36-8l-25 1c-12 1-24-1-33-6-10-5-15-11-17-18l-2-15c-1-5-4-10-10-15l18-119 6 3c12 6 26 8 41 8l30-2c17-1 33 2 45 10l21 12c6 3 12 6 18 7l-23 158zm127 0c5-1 10-3 15-6l17-10c10-6 23-9 37-8l24 1c13 1 24-1 34-6s15-11 16-18l2-15c1-5 5-10 11-15l-18-119-6 3c-12 6-26 8-41 8l-30-2c-17-1-33 2-45 10l-21 12c-6 3-12 6-18 7l23 158z"></path>
        <path fill="#fff" d="M256 358c4 4 9 6 14 6 6 0 11-2 15-6l7-7c5-5 10-7 17-6l10 1c6 0 11-1 15-5 5-4 7-8 8-14l1-11c0-6 3-11 8-15l9-6c5-3 7-7 8-13 1-5 0-11-3-15l-6-9c-4-5-5-11-3-17l3-11c1-5 0-10-2-15-3-5-7-8-13-9l-10-3c-6-2-11-6-13-11l-5-10c-2-5-6-9-12-11-5-2-10-1-15 1l-10 5c-6 2-12 2-17 0l-10-5c-10-5-22 0-27 10l-5 10c-2 5-7 9-13 11l-10 3c-6 1-10 4-13 9s-3 10-2 15l3 11c2 6 1 12-3 17l-6 9c-3 4-5 10-4 15 1 6 4 10 9 13l9 6c5 4 8 9 8 15l1 11c1 6 3 10 7 14 5 4 10 5 15 5l11-1c6-1 12 1 16 6l8 7z"></path>
    </symbol>
    <symbol fill-rule="evenodd" viewBox="0 0 540 665" id="questions">
        <path d="M353 545c0-33-12-62-36-86s-53-36-86-36-61 11-85 35-35 52-35 87c0 33 11 62 35 85 23 23 51 35 85 35s62-12 86-36c24-23 36-51 36-84zm79-84c28-23 49-44 63-63 30-41 45-90 45-146 0-76-26-137-78-183C411 23 343 0 258 0 184 0 122 19 74 56 24 94 0 140 0 196c0 33 9 60 27 80s42 30 73 30 56-9 75-27 29-42 29-70c0-20-4-37-13-52-8-15-19-26-34-34l-22-9c-14-4-20-9-20-14 0-14 12-27 38-40 25-13 55-20 90-20 44 0 80 10 108 30 28 21 42 47 42 78 0 36-31 84-94 143-15 14-28 25-38 36-12 11-16 28-11 44 6 16 19 27 36 29 26 3 49 15 69 35 6 6 10 11 15 17 7 10 17 16 29 18s23-2 33-9z"></path>
    </symbol>
    <symbol fill-rule="evenodd" viewBox="0 0 540 511" id="stash">
        <path d="M32 299h476c18 0 32-11 32-24v-95c0-13-14-24-32-24H32c-17 0-32 11-32 24v95c0 13 15 24 32 24zm182-103h112c15 0 15 26 0 26H214c-15 0-15-26 0-26zM91 21l-68 79c-4 5-5 12-1 18 4 5 11 9 19 9h458c8 0 15-4 19-9 4-6 3-13-1-18l-67-79C438 8 420 0 399 0H141c-21 0-39 8-50 21zM32 511h476c18 0 32-14 32-31V359c0-17-14-31-32-31H32c-17 0-32 14-32 31v121c0 17 15 31 32 31zm182-132h112c15 0 15 34 0 34H214c-15 0-15-34 0-34z"></path>
    </symbol>
    <symbol fill-rule="evenodd" viewBox="0 0 540 592" id="transactions">
        <path d="M500 114H246c-11 0-20-16-20-35V53c0-19-6-35-15-45s-20-11-30-1L16 165C4 176-2 201 1 224c3 24 15 41 29 41h470c53 0 53-151 0-151zm10 213H40c-53 0-53 150 0 150h254c11 0 21 16 21 36v25c0 19 5 36 14 46 10 10 20 10 30 1l165-158c13-12 19-36 15-60-3-24-15-40-29-40z"></path>
    </symbol>
    <symbol viewBox="0 0 5329 7234" id="paid">
        <path d="M5156 5069c153-305 161-665-96-898 112-345 16-762-329-890 65-217 81-449-32-642-104-168-304-216-489-208 201-433 505-978 906-1371l56-57-48-64c-32-40-810-1050-1796-745l-64 24 8 64c0 24 128 1772-249 2550-32 16-64 40-96 56-56-168-120-337-200-497-153-369-401-866-738-1283 160-145 80-369 16-489 208-185 521-393 874-434 40 105 120 273 264 329 0-136-7-216-7-216l-17-145 137-40c56-16 112-32 160-40l-56-16c-978-305-1756 706-1788 746l-48 64 56 56c433 417 754 1011 954 1460-601 200-826 722-1018 1179-129 312-249 593-465 697l-9-24-72-200L0 4347l938 2887 979-320-57-169c875-256 1797-361 2695-569 273-72 561-136 714-393 128-217 32-513-113-714zM529 4813l-96-281 289-96 96 288-289 89zm2895-2903c32 104 121 216 257 272 192 97 417 48 481-96 72-152-32-345-233-441-200-88-417-48-489 96 32-401 32-802 24-1082 201 0 305-217 353-337 353 40 666 248 882 425-64 128-144 353 16 497-320 393-553 850-713 1211-257 40-498 144-738 257 80-241 128-522 160-802zm-874 497c-8 0-8 8-8 8v-24c0 8 0 16 8 16zm2334 3304c-233 144-570 184-834 240-746 153-1556 249-2286 457l-609-1812c345-144 545-537 697-890 161-385 337-794 770-954l121 409c24 80 120 96 184 64 345-193 722-401 1123-465h8c8-8 16-8 24-8 120-16 313-32 377 104 40 104 24 224 8 329-16 64-48 152-56 168-24 64 0 169 88 177 313 32 361 392 240 633-24 48-16 120 32 144 249 185 209 465 65 706-16 32-16 88 8 120 136 161 264 433 40 578zM2767 1509c-193 96-297 288-233 441 72 144 281 192 481 104 32-16 64-32 88-56 16-161 33-329 40-497-96-56-240-56-376 8z"></path>
    </symbol>

    <symbol fill-rule="evenodd" viewBox="0 0 742 742" id="answers">
        <path d="M371 0c205 0 371 166 371 371S576 742 371 742 0 576 0 371 166 0 371 0zm184 282L356 545c-13 18-33 27-54 25s-39-15-49-35l-65-125c-30-57 49-107 78-51l33 63c3 6 8 9 14 10 6 0 12-2 16-7l157-207c38-51 107 14 69 64z"></path>
    </symbol>
    <symbol fill-rule="evenodd" viewBox="0 0 742 714" id="review">
        <path d="M450 58l30 93c12 35 43 58 80 58h98c37 0 68 22 79 57 12 35 0 72-30 94l-79 57c-30 22-42 59-31 94l31 93c11 35-1 72-31 93-29 22-68 22-98 0l-79-57c-30-22-69-22-98 0l-79 57c-30 22-69 22-99 0-30-21-41-58-30-93l30-93c12-35 0-72-30-94l-79-57C5 338-7 301 4 266c12-35 43-57 80-57h98c37 0 68-23 79-58l30-93c12-35 43-58 80-58s68 23 79 58z"></path>
    </symbol>
    <symbol fill-rule="evenodd" viewBox="0 0 1183 1675" id="earnings">
        <path fill-rule="nonzero" d="M673 1104l1 84c0 27 14 50 37 64 24 13 51 12 74-3 5-3 10-6 14-10 30-24 45-56 45-96 0-35-15-65-44-89-4-4-9-7-13-10-23-16-51-17-75-4-25 13-39 37-39 64zM370 403c-6 16-9 34-9 54 0 21 3 40 10 55 14 33 47 50 81 43 35-7 59-36 59-71v-55c0-35-25-65-60-71-35-7-68 12-81 45zm141 1199v-94c0-39-31-71-70-73-134-5-238-30-312-75-86-50-129-124-129-221 0-54 18-99 53-135 36-35 81-53 136-53 51 0 94 15 129 45 34 29 51 65 51 109 0 33-9 60-27 82-18 21-44 36-78 44 28 19 59 32 94 41 23 5 48 9 74 11 21 2 40-5 55-19 16-14 24-32 24-53v-187c0-34-23-63-56-71-153-37-263-82-331-135C48 758 11 678 11 577c0-117 44-214 133-291 77-66 179-108 304-127 36-5 63-36 63-72V73c0-40 32-73 72-73h18c40 0 72 32 72 72l1 10c0 38 28 69 66 72 115 10 207 37 273 79 78 49 118 119 118 207 0 54-17 99-51 133-33 34-77 51-131 51-50 0-93-13-125-41-33-27-50-62-50-103 0-24 7-47 19-67 12-21 31-40 55-58-22-13-47-22-77-29-4-1-8-1-12-2-22-4-42 1-60 15-17 14-26 34-26 56v174c0 35 23 64 57 71 149 33 260 78 332 135 81 64 121 151 121 259 0 123-44 219-134 290-76 61-179 97-310 109-37 3-66 34-66 72v97c0 40-33 73-73 73h-17c-40 0-72-33-72-73z"></path>
    </symbol>

    <symbol fill-rule="evenodd" viewBox="0 0 5401 4089" id="forum">
        <path d="M2700 0c1492 0 2701 875 2701 1955 0 1079-1209 1954-2701 1954-405 0-1727-90-2196 166-36 19-76 19-111-2s-55-56-55-97C338 2839 0 2451 0 1955 0 875 1209 0 2700 0zm0 1634c182 0 329 127 329 283s-147 282-329 282c-181 0-328-126-328-282s147-283 328-283zm1334 0c182 0 329 127 329 283s-147 282-329 282c-181 0-328-126-328-282s147-283 328-283zm-2667 0c181 0 328 127 328 283s-147 282-328 282c-182 0-329-126-329-282s147-283 329-283z"></path>
     </symbol>
    <symbol fill-rule="evenodd" viewBox="0 0 13299 14118" id="setting">
        <path d="M4613 12588l113 720c74 470 466 810 935 810h1977c469 0 861-340 935-810l114-720c60-387 269-694 603-890 335-196 701-225 1062-85l672 260c438 170 924-4 1158-417l989-1736c234-412 140-926-224-1226l-558-460c-300-247-458-584-458-975 0-392 158-729 458-975l558-460c365-300 458-814 224-1226l-989-1737c-234-412-720-587-1158-417l-672 261c-361 140-727 110-1062-86-334-195-543-503-603-889l-114-721C8499 339 8107 0 7638 0H5661c-469 0-861 339-935 809l-113 721c-61 386-270 694-604 889-334 196-701 226-1062 86l-671-261c-439-170-925 5-1159 417L128 4398c-234 412-140 926 224 1226l558 460c300 246 458 583 458 975 0 391-158 728-458 975l-558 460c-364 299-458 814-224 1226l989 1736c234 413 721 588 1159 417l671-260c361-140 728-111 1062 85s543 503 604 890zm2037-8257c1485 0 2689 1221 2689 2728 0 1506-1204 2727-2689 2727-1486 0-2689-1221-2689-2727 0-1507 1203-2728 2689-2728z"></path>
    </symbol>
    <symbol fill-rule="evenodd" viewBox="0 0 6652 7042" id="logout">
        <rect x="3061" width="3591" height="7042" rx="508" ry="1015"></rect>
        <path d="M2111 3310l513-975c160-304-519-825-907-501L209 3098c-279 233-279 613 0 846l1508 1264c388 324 1067-197 907-501l-513-975c-73-139-73-283 0-422z"></path>
    </symbol>

    <symbol fill-rule="evenodd" viewBox="0 0 5401 3993" id="profile">
        <path fill-rule="nonzero" d="M4310 2534c432 262 793 626 1052 1057 51 84 52 182 4 268-49 85-133 134-231 134h-32c-95 0-177-46-226-127-225-369-541-677-916-891-43-25-95-19-132 13-301 266-696 427-1129 427-432 0-827-161-1128-427-38-32-89-38-132-13-376 214-691 522-916 891-49 81-131 127-226 127h-32c-98 0-182-49-231-134-48-86-47-184 4-268 259-431 620-795 1051-1057 49-30 69-90 46-143-92-209-143-440-143-684 0-471 191-898 500-1207S2229 0 2700 0c472 0 899 191 1208 500s500 736 500 1207c0 244-51 475-143 684-23 53-4 113 45 143zM3514 894c-208-208-496-337-814-337-317 0-605 129-813 337s-337 496-337 813c0 318 129 606 337 814s496 337 813 337c318 0 606-129 814-337s337-496 337-814c0-317-129-605-337-813z"></path>
    </symbol>
    <symbol fill-rule="evenodd" viewBox="0 0 5401 4862" id="address">
        <path d="M3114 2629v401c1000 96 1592 443 1592 706 0 306-820 731-2149 731-1335 0-2156-425-2156-731 0-263 599-610 1605-706v-401C958 2724 0 3108 0 3736c0 731 1317 1126 2557 1126 1233 0 2545-395 2545-1126 0-622-941-1006-1988-1107zM5311 174c-30-24-60-30-96-30-30 0-60 6-84 18l-329 161c-156 72-323 108-491 108-173 0-347-42-509-120-161-83-335-125-509-125-185 0-365 42-533 131V198c0-108-84-198-197-198-108 0-198 90-198 198v3586c0 114 90 204 198 204 113 0 197-90 197-204V1958c168-90 348-132 533-132 174 0 348 36 509 120 162 84 336 126 509 126 168 0 335-36 491-114l491-240c66-29 108-95 108-167V329c0-66-36-125-90-155z"></path>
    </symbol>
    <symbol shape-rendering="geometricPrecision" fill-rule="evenodd" viewBox="0 0 11834 9621" id="callendar">
        <path d="M11185 0H9710v1121c0 443-369 812-827 812-443 0-811-369-811-812V0H3778v1121c0 443-369 812-812 812-457 0-812-369-812-812V0H664C295 0 0 295 0 664v15 8263 15c0 354 295 649 649 664h10536c354-15 649-310 649-664v-15V679v-15c0-354-295-649-649-664zM2966 7393h-738v-738h738v738zm0-1845h-738v-738h738v738zm0-1844h-738v-738h738v738zm2213 3689h-737v-738h737v738zm0-1845h-737v-738h737v738zm0-1844h-737v-738h737v738zm2214 3689h-738v-738h738v738zm0-1845h-738v-738h738v738zm0-1844h-738v-738h738v738zm2213 3689h-738v-738h738v738zm0-1845h-738v-738h738v738zm0-1844h-738v-738h738v738z"></path>
        <use xlink:href="#B"></use>
        <use xlink:href="#B"></use>
        <defs>
        <path id="B" d="M5917 6590c248 0 443-195 443-443V3474c0-248-195-443-443-443s-443 195-443 443v2673c0 248 195 443 443 443z"></path>
        </defs>
    </symbol>
</svg>