<svg width="0" height="0" xmlns="http://www.w3.org/2000/svg" shape-rendering="geometricPrecision" image-rendering="optimizeQuality">
  <symbol viewBox="0 0 3595 4077" id="html">
    <path fill="#e44d26" d="M1799 4077h0l1467-404L3595 0H0l329 3673 1467 404h0 1 2z"></path>
    <path fill="#ef6429" d="M1798 3766h0l1243-342 279-3113H1796v3455h0 0 1z"></path>
    <path fill="#eaeaea" d="M1139 2094h657v-448h-697l-40-444h737v-3-448H662l40 448 40 447 40 448z"></path>
    <path fill="#fff" d="M2455 2094l-55 616-602 165v1h-1 0v-1h-1v451h0 0 1 1 0l927-255 87-977 40-448h-357-699v448h659zm437-895l40-448H1796v448h1096z"></path>
    <path fill="#eaeaea" d="M1796 2875l-601-165-36-392H803l67 753 926 255z"></path>
  </symbol>
  <symbol viewBox="0 0 3996 4533" id="css">
    <path fill="#0070ba" d="M1999 4533v-1l1631-449L3996 0H0l366 4083 1630 449v1l2-1 1 1z"></path>
    <path fill="#29a8e0" d="M1999 4187v-1l1382-380 310-3460H1996v3840h1v1l1-1z"></path>
    <path d="M781 1332h1215V835H736zm1215 996v-498h-774-397l45 498h397z" fill="#eaeaea"></path>
    <path fill="#fff" d="M2668 3012l-669 184v1h-1-1v-1h-1v501h1v1l1-1 1 1v-1l1030-283 97-1086 45-498 44-498 45-497H1996v497 4h822l-44 494h-778v498h733z"></path>
    <path fill="#eaeaea" d="M1996 3697v-501l-668-184-39-436H892l75 838z"></path>
  </symbol>
  <symbol viewBox="0 0 4535 5144" id="javascript">
    <path fill="#63a813" d="M2269 5144v-1l1850-510L4535 0H0l415 4633 1851 510v1l1-1 2 1z"></path>
    <path fill="#8acf17" d="M2269 4751v-1l1568-431 351-3926H2266v4357h0v1h1z"></path>
    <path d="M1097 3874l1169 321v-568l-759-209-44-494h-451zM886 1512h1380V948H835z" fill="#eaeaea"></path>
    <path fill="#fff" d="M3198 1516l-170 1902-760 209v1l-1-1v1-1h-1v568 1h0 1 1 0l1169-322 212-2362 50-564H2266v564 4z"></path>
  </symbol>
  <symbol viewBox="0 0 16450 16977" id="laravel">
    <path fill="#ff2d20" d="M16450 3858v57 3651c0 94-56 189-131 226l-3050 1751v3500c0 95-56 170-131 226l-6362 3671c-19 18-38 18-38 18-19 0-19 0-19 19h-75-75c0-19 0-19-19-19 0 0-19 0-38-18L132 13269c-76-56-132-131-132-226V2108c0-19 0-38 19-56v-38c18 0 18-19 18-38l19-19c19-18 19-18 19-37 19 0 19 0 38-19l19-19h0L3331 37c38-18 76-37 132-37 38 0 94 19 132 37l3181 1845h0c19 0 19 19 37 19 0 19 19 19 19 19 19 19 19 19 19 37 19 0 19 19 19 19 19 19 19 38 19 38 0 19 19 19 19 38v56 6814l2635-1506V3915c0-19 0-38 19-57v-37c18 0 18-19 18-38l19-19c19-18 19-18 19-37 19 0 19 0 38-19l18-19h0l3200-1844c38-19 76-38 132-38 38 0 94 19 132 38l3181 1844c19 0 19 19 37 19 0 19 19 19 19 19 19 19 19 19 19 37 19 0 19 19 19 19 19 19 19 38 19 38 0 19 18 19 18 37zm-527 3558V4385l-1110 640-1544 885v3012l2654-1506h0zm-3181 5458V9844l-1524 866-4310 2484v3049l5834-3369zM546 2579v10295l5835 3369v-3049l-3050-1732h0 0c-19-18-19-18-37-18 0-19-19-19-19-38h0c-19 0-19-19-19-19l-19-19h0c-19-19-19-37-19-37 0-19-18-19-18-38h0v-38-18-7134l-1544-885-1110-639h0zM3463 583L809 2108l2654 1543 2654-1543L3463 583h0zm1374 9543l1544-885V2579l-1111 639-1543 885v6663l1110-640zm8169-7736l-2654 1525 2654 1543 2654-1543-2654-1525zm-264 3520l-1543-885-1129-640v3031l1543 884 1129 622V5910zm-6098 6814l3878-2221 1938-1111-2654-1525-3030 1751-2786 1600 2654 1506z"></path>
  </symbol>
  <symbol viewBox="0 0 204.8 105.765" id="mysql">
    <path d="M0 96.334h6.747V69.7l10.445 23.227c1.232 2.8 2.92 3.806 6.228 3.806s4.93-.995 6.164-3.806L40.03 69.7v26.644h6.748v-26.6c0-2.595-1.04-3.85-3.18-4.498-5.125-1.6-8.564-.216-10.12 3.244l-10.25 22.923L13.3 68.48c-1.492-3.46-4.995-4.844-10.12-3.244C1.038 65.885 0 67.14 0 69.734v26.6zm52.386-21.686h6.745v14.68c-.063.798.256 2.67 3.952 2.727 1.886.03 14.554 0 14.672 0v-17.48h6.76c.03 0-.007 23.834-.006 23.936.037 5.878-7.294 7.155-10.672 7.254H52.533v-4.54l21.342-.001c4.342-.46 3.83-2.617 3.83-3.344v-1.77h-14.34c-6.672-.06-10.92-2.973-10.973-6.323-.005-.3.144-14.995-.004-15.14z" fill="#00618a"></path>
    <path d="M89.716 96.334h19.398c2.27 0 4.477-.475 6.23-1.298 2.92-1.34 4.347-3.157 4.347-5.536v-4.93c0-1.947-1.622-3.763-4.8-4.974-1.687-.65-3.763-.995-5.774-.995h-8.175c-2.724 0-4.022-.822-4.346-2.638-.065-.216-.065-.4-.065-.606v-3.07c0-.173 0-.347.065-.563.324-1.384 1.038-1.774 3.438-2 .195 0 .454-.044.65-.044h19.268v-4.497h-18.944c-2.725 0-4.152.173-5.45.562C91.532 67 89.78 69 89.78 72.46v3.936c0 3.028 3.44 5.623 9.212 6.228.65.043 1.298.086 1.946.086h7.007c.26 0 .52 0 .714.044 2.14.173 3.05.562 3.698 1.34.4.4.52.78.52 1.2v3.936c0 .476-.324 1.082-.973 1.6-.584.52-1.557.865-2.855.952-.26 0-.454.043-.713.043h-18.62v4.498zm72.064-7.828c0 4.628 3.438 7.223 10.38 7.742a29.45 29.45 0 0 0 1.946.086h17.582v-4.498h-17.712c-3.957 0-5.45-.995-5.45-3.374v-23.27h-6.747v23.312zm-37.785.234V72.705c0-4.074 2.86-6.545 8.516-7.325a12.94 12.94 0 0 1 1.821-.13h12.807a13.87 13.87 0 0 1 1.886.13c5.656.78 8.516 3.25 8.516 7.325V88.74c0 3.305-1.215 5.074-4.015 6.227l6.646 6h-7.834l-5.377-4.854-5.413.343h-7.216c-1.235 0-2.535-.174-3.966-.564-4.3-1.17-6.37-3.424-6.37-7.152zm7.283-.4c0 .217.065.433.13.694.4 1.864 2.145 2.904 4.8 2.904h6.13l-5.63-5.083h7.834l4.9 4.433c.905-.482 1.5-1.22 1.7-2.167.065-.216.065-.433.065-.65V73.096c0-.173 0-.4-.065-.607-.4-1.733-2.146-2.73-4.746-2.73H136.22c-3 0-4.94 1.3-4.94 3.337v15.256z" fill="#e48e00"></path>
    <g fill="#00618a">
      <path d="M197.624 57.73c-4.147-.112-7.316.273-10.024 1.415-.77.325-1.997.333-2.123 1.298.423.443.49 1.105.825 1.65.647 1.047 1.74 2.45 2.713 3.184 1.064.803 2.16 1.663 3.303 2.36 2.03 1.238 4.296 1.945 6.25 3.184 1.152.73 2.296 1.65 3.42 2.476.555.408.93 1.042 1.65 1.297v-.118c-.38-.483-.477-1.147-.825-1.65l-1.533-1.533c-1.5-2-3.402-3.737-5.425-5.19-1.613-1.158-5.224-2.722-5.897-4.6l-.118-.118c1.144-.13 2.483-.543 3.54-.825 1.773-.475 3.358-.353 5.19-.825l2.477-.708v-.472c-.926-.95-1.586-2.207-2.595-3.066-2.64-2.25-5.523-4.495-8.49-6.37-1.646-1.04-3.68-1.714-5.425-2.595-.587-.296-1.618-.45-2.005-.944-.916-1.168-1.415-2.65-2.122-4-1.48-2.85-2.934-5.964-4.246-8.963-.895-2.045-1.48-4.062-2.594-5.897-5.355-8.804-11.12-14.118-20.048-19.34-1.9-1.11-4.187-1.55-6.605-2.123l-3.892-.236c-.792-.33-1.616-1.3-2.36-1.77-2.958-1.87-10.545-5.933-12.736-.6-1.383 3.373 2.067 6.664 3.302 8.374.866 1.2 1.976 2.543 2.594 3.892.407.886.478 1.775.826 2.713.857 2.3 1.603 4.823 2.712 6.958.56 1.08 1.178 2.218 1.887 3.184.435.593 1.18.854 1.297 1.77-.728 1.02-.77 2.6-1.18 3.892-1.843 5.812-1.148 13.035 1.533 17.337.823 1.32 2.76 4.152 5.425 3.066 2.33-.95 1.8-3.89 2.477-6.486.15-.59.058-1.02.354-1.415v.118l2.123 4.245c1.57 2.53 4.36 5.175 6.722 6.96 1.225.925 2.2 2.525 3.774 3.066v-.118h-.118c-.307-.48-.787-.677-1.18-1.06-.923-.905-1.95-2.03-2.713-3.066-2.15-2.918-4.048-6.11-5.778-9.435-.826-1.587-1.545-3.338-2.24-4.953-.268-.623-.265-1.564-.825-1.887-.763 1.184-1.887 2.14-2.477 3.538-.944 2.234-1.066 4.958-1.415 7.784-.207.074-.115.023-.236.118-1.642-.396-2.22-2.087-2.83-3.538-1.544-3.67-1.83-9.576-.472-13.798.35-1.092 1.94-4.534 1.297-5.543-.307-1.007-1.32-1.6-1.887-2.36-.7-.95-1.402-2.204-1.887-3.302-1.264-2.86-1.854-6.07-3.184-8.963-.636-1.382-1.71-2.78-2.594-4-.978-1.36-2.073-2.364-2.83-4-.27-.585-.636-1.52-.236-2.123a.93.93 0 0 1 .708-.708c.684-.527 2.59.175 3.302.472 1.89.786 3.47 1.534 5.072 2.595.77.5 1.547 1.496 2.476 1.77h1.06c1.66.382 3.52.12 5.07.59 2.742.833 5.198 2.13 7.43 3.538 6.798 4.292 12.355 10.402 16.157 17.7.612 1.173.876 2.294 1.415 3.538 1.087 2.5 2.456 5.093 3.538 7.547 1.08 2.45 2.13 4.92 3.656 6.958.802 1.07 3.9 1.646 5.307 2.24.987.417 2.603.852 3.538 1.415 1.785 1.077 3.515 2.36 5.19 3.54.837.59 3.41 1.883 3.538 2.948z"></path>
      <path d="M144.91 12.798c-.865-.016-1.476.094-2.123.236v.118h.118c.412.848 1.14 1.393 1.65 2.123l1.18 2.476.118-.118c.73-.515 1.065-1.338 1.06-2.595-.293-.308-.336-.694-.59-1.062-.337-.49-1-.768-1.415-1.18z" fill-rule="evenodd"></path>
    </g>
    <path d="M194.855 91.708c0 2.97 2.347 4.972 4.972 4.972s4.972-2.002 4.972-4.972-2.347-4.972-4.972-4.972-4.972 2.002-4.972 4.972zm8.83 0c0 2.254-1.723 3.938-3.86 3.938-2.16 0-3.86-1.684-3.86-3.938s1.698-3.938 3.86-3.938c2.135 0 3.86 1.684 3.86 3.938zm-2.52 2.838h1.113l-1.63-2.492c.875-.093 1.537-.518 1.537-1.552 0-1.154-.73-1.63-2.134-1.63h-2.215v5.675h.955v-2.453h.888l1.485 2.453zm-2.374-3.25v-1.63h1.1c.57 0 1.26.106 1.26.77 0 .795-.623.862-1.34.862h-1.02z" fill="#e48e00" fill-rule="evenodd"></path>
  </symbol>
  <symbol viewBox="0 0 107 94" id="postgresql">
    <path d="M11.2 78.902H6.542v-4.26h4.92c1.8 0 2.702.72 2.702 2.163 0 1.398-.985 2.097-2.955 2.097m3.354-4.3c-.64-.52-1.534-.78-2.684-.78l-6.684.034v10.2h1.347l-.012-4.338h4.973c1.247 0 2.23-.26 2.945-.78s1.075-1.24 1.075-2.163-.32-1.643-.96-2.163zm8.717 7.296a2.09 2.09 0 0 1-.639.867c-.603.534-1.523.8-2.76.8-1.118 0-1.976-.26-2.574-.78s-.898-1.214-.898-2.085c0-.453.078-.856.235-1.207a2.4 2.4 0 0 1 .68-.89c.62-.512 1.47-.768 2.557-.768 2.404 0 3.606.955 3.606 2.864 0 .454-.07.852-.205 1.196m.244-3.76c-.82-.68-2.036-1.02-3.645-1.02-1.52 0-2.696.347-3.524 1.04-.748.628-1.122 1.475-1.122 2.54s.386 1.913 1.16 2.563a3.99 3.99 0 0 0 1.491.761c.567.157 1.233.235 1.997.235 1.6 0 2.82-.336 3.657-1.008.748-.613 1.122-1.464 1.122-2.552 0-1.095-.378-1.95-1.135-2.563zm10.186 4.057c0 1.372-1.354 2.057-4.063 2.057-.828 0-1.525-.048-2.092-.143s-1.027-.254-1.38-.474c-.273-.168-.5-.387-.65-.657a2.75 2.75 0 0 1-.313-1.018l1.26-.01c0 .54.22.937.662 1.193.473.307 1.312.46 2.515.46 1.893 0 2.84-.43 2.84-1.3 0-.503-.317-.85-.952-1.04-.13-.037-.894-.133-2.297-.3l-2.622-.42c-.747-.27-1.12-.755-1.12-1.456 0-.686.334-1.197 1.002-1.532.33-.14.742-.246 1.237-.323s1.068-.115 1.72-.115c2.607 0 3.9.742 3.9 2.227h-1.2c0-1.043-.916-1.565-2.75-1.565-.932 0-1.628.106-2.086.317s-.687.536-.687.974c0 .4.3.704.928.886.362.095 1.194.205 2.496.328 1.166.095 1.965.23 2.4.405.828.292 1.242.788 1.242 1.488zm4.948 1.858l-.513.065-.32.022c-.82 0-1.412-.108-1.775-.324s-.544-.594-.544-1.135v-4.65h-1.495v-.684h1.483l.012-2.197h1.15v2.197h2v.695l-2-.01v4.524c0 .337.098.57.296.698s.55.192 1.055.192c.072.007.153.005.24-.007s.22-.04.398-.082l.012.698zm7.947-1.542a3.52 3.52 0 0 1-1.073.536c-.402.124-.864.186-1.386.186-2.403 0-3.604-.9-3.604-2.7 0-.838.307-1.495.922-1.968s1.48-.7 2.597-.7c1.125 0 1.98.24 2.56.716s.874 1.117.874 1.92c0 .875-.297 1.55-.892 2.023m2.04-5.16H47.5l-.012 1.15c-.506-.467-.868-.762-1.085-.886-.643-.32-1.475-.48-2.496-.48-1.496 0-2.637.3-3.425.93-.748.57-1.122 1.393-1.122 2.472 0 .532.095 1.008.284 1.427a2.86 2.86 0 0 0 .827 1.066c.8.598 1.904.897 3.346.897 1.73 0 2.96-.43 3.684-1.3v1.2c0 .76-.264 1.346-.8 1.762s-1.393.624-2.6.624c-1.134 0-1.942-.142-2.424-.425-.362-.218-.6-.596-.748-1.133h-1.182c.13.75.48 1.294 1.05 1.63.66.386 1.773.58 3.342.58 3 0 4.5-1.012 4.5-3.036v-6.5zm6.217.675a6.64 6.64 0 0 0-.964-.076c-1.888 0-2.832.94-2.832 2.82v3.268H49.93l-.012-6.687 1.15.01v1.193h.06a2.13 2.13 0 0 1 .916-1.069c.458-.235 1.14-.353 2.05-.353h.77v.895zm1.068 2.234c.145-.76.47-1.348.976-1.765.33-.24.703-.422 1.12-.543s.888-.18 1.4-.18c1.02 0 1.854.254 2.5.762s.97 1.083.97 1.727h-6.98m7.092-2.063c-.402-.366-.9-.637-1.496-.812s-1.3-.264-2.087-.264c-1.5 0-2.643.314-3.464.942s-1.23 1.482-1.23 2.563.394 1.938 1.182 2.573c.852.7 2.055 1.05 3.607 1.05.62 0 1.192-.064 1.72-.2s.987-.307 1.38-.54c.692-.45 1.13-1.007 1.315-1.668h-1.242c-.426 1.143-1.487 1.715-3.183 1.715-1.198 0-2.12-.28-2.76-.84-.555-.48-.832-1.1-.832-1.863h8.2c0-1.134-.366-2.024-1.098-2.668z" fill="#231f20"></path>
    <path d="M76.258 81.305c0 1.985-1.764 2.978-5.294 2.978-2.115 0-3.658-.342-4.63-1.026-.796-.562-1.194-1.42-1.194-2.572h1.42c0 1.853 1.467 2.78 4.403 2.78 1.407 0 2.425-.2 3.053-.57.53-.335.796-.86.796-1.575 0-.707-.362-1.203-1.086-1.487-.4-.153-1.412-.346-3.004-.58-2.003-.277-3.3-.554-3.897-.83-.86-.408-1.3-1.1-1.3-2.078 0-.9.366-1.6 1.098-2.034.788-.488 2.14-.733 4.054-.733 3.46 0 5.188 1.042 5.188 3.127h-1.433c0-1.562-1.284-2.342-3.852-2.342-1.288 0-2.23.157-2.826.47-.564.336-.845.828-.845 1.478 0 .68.362 1.157 1.086 1.434.386.16 1.52.383 3.402.668 1.77.24 2.964.522 3.584.843.845.394 1.267 1.077 1.267 2.048zm11.54 1.013a5.75 5.75 0 0 1-1.799.869c-.668.193-1.417.3-2.246.3-1.7 0-3.057-.413-4.1-1.24S78.1 80.307 78.1 78.93c0-1.435.517-2.553 1.55-3.355s2.405-1.202 4.112-1.202c1.73 0 3.092.42 4.082 1.257a3.93 3.93 0 0 1 1.16 1.432c.26.547.374 1.17.374 1.87 0 1.428-.523 2.557-1.57 3.387m.755.676c.74-.474 1.288-1.048 1.642-1.722s.532-1.453.532-2.335c0-1.582-.58-2.85-1.738-3.806-.62-.525-1.368-.915-2.244-1.17s-1.88-.383-3.004-.383c-2.188 0-3.905.48-5.152 1.444s-1.87 2.267-1.87 3.915a4.69 4.69 0 0 0 1.887 3.882c1.257.984 2.978 1.476 5.157 1.476a13.83 13.83 0 0 0 2.23-.157c.634-.105 1.174-.265 1.617-.482l2.1 1.32.876-.73-2.032-1.25zm12.804 1.04H91.66v-10.2l1.334-.022v9.37h8.385l-.012.852z" fill="#367faf"></path>
    <path d="M67.546 49.655c.382-3.185.268-3.652 2.64-3.136l.602.053c1.824.083 4.2-.293 5.612-.945 3.018-1.4 4.807-3.738 1.832-3.124-6.787 1.4-7.254-.898-7.254-.898 7.167-10.634 10.163-24.134 7.577-27.44-7.054-9.013-19.263-4.75-19.468-4.64l-.065.012c-1.342-.278-2.842-.444-4.528-.472-3.07-.05-5.402.805-7.17 2.146 0 0-21.78-8.974-20.768 11.286.216 4.3 6.178 32.612 13.288 24.063 2.6-3.126 5.11-5.77 5.11-5.77 1.247.83 2.74 1.25 4.306 1.1l.12-.103c-.038.388-.02.768.048 1.217-1.832 2.047-1.293 2.406-4.956 3.16-3.705.764-1.528 2.123-.107 2.478 1.723.43 5.71 1.04 8.402-2.73l-.107.43c.72.575.67 4.132.772 6.673s.272 4.913.8 6.312 1.13 5 5.943 3.968c4.023-.862 7.098-2.103 7.38-13.644" fill="#231f20" stroke="#231f20" stroke-width="5.046"></path>
    <path d="M78.233 42.503c-6.788 1.4-7.255-.898-7.255-.898 7.167-10.635 10.163-24.135 7.578-27.44-7.054-9.012-19.264-4.75-19.468-4.64l-.066.012c-1.342-.278-2.842-.444-4.53-.472-3.07-.05-5.4.805-7.17 2.146 0 0-21.782-8.973-20.77 11.286.215 4.3 6.177 32.612 13.288 24.064 2.6-3.126 5.1-5.77 5.1-5.77 1.247.83 2.74 1.25 4.306 1.1l.122-.103c-.038.388-.02.768.05 1.217-1.832 2.047-1.294 2.406-4.956 3.16-3.706.764-1.53 2.123-.108 2.478 1.723.43 5.71 1.04 8.402-2.73l-.107.43c.718.575 1.222 3.74 1.137 6.608s-.14 4.838.425 6.377 1.13 5 5.944 3.968c4.023-.862 6.107-3.096 6.397-6.822.206-2.65.67-2.258.7-4.626l.374-1.12c.43-3.59.068-4.75 2.547-4.21l.602.053c1.824.083 4.21-.293 5.613-.945 3.017-1.4 4.807-3.738 1.832-3.124z" fill="#417ba2"></path>
    <g fill="none">
      <g>
        <path d="M53.06 44.562c-.187 6.682.047 13.4.7 15.046s2.054 4.816 6.87 3.785c4.022-.862 5.486-2.53 6.12-6.214.468-2.7 1.37-10.236 1.485-11.778M47.3 11.063s-21.797-8.9-20.783 11.35c.216 4.3 6.178 32.613 13.3 24.064 2.6-3.126 4.95-5.578 4.95-5.578M59.064 9.437c-.755.237 12.125-4.708 19.444 4.644 2.585 3.304-.4 16.804-7.578 27.44"></path>
        <path d="M70.93 41.52s.467 2.3 7.255.898c2.974-.614 1.184 1.724-1.832 3.125-2.476 1.15-8.026 1.443-8.117-.144-.234-4.096 2.92-2.852 2.694-3.878-.206-.924-1.617-1.832-2.55-4.094-.815-1.975-11.173-17.12 2.873-14.87.515-.106-3.663-13.36-16.808-13.575s-12.7 16.162-12.7 16.162" stroke-linejoin="bevel"></path>
      </g>
      <g>
        <path d="M49.383 42.922c-1.832 2.047-1.293 2.406-4.956 3.16-3.705.764-1.528 2.123-.108 2.478 1.723.43 5.71 1.042 8.402-2.73.82-1.148-.005-2.98-1.13-3.448-.544-.225-1.272-.508-2.208.54z"></path>
        <path d="M49.262 42.886c-.184-1.203.396-2.635 1.017-4.31.934-2.513 3.09-5.028 1.365-13-1.285-5.942-9.904-1.237-9.91-.43s.4 4.084-.144 7.9c-.697 4.98 3.17 9.194 7.622 8.763"></path>
      </g>
    </g>
    <g fill="#fff">
      <path d="M47.212 25.023c-.04.275.504 1.01 1.21 1.108s1.31-.475 1.35-.75-.504-.578-1.21-.677-1.312.045-1.35.32z" stroke-width=".561"></path>
      <path d="M68.725 24.462c.038.275-.504 1-1.21 1.108s-1.31-.475-1.35-.75.505-.578 1.212-.677 1.31.045 1.35.32z" stroke-width=".28"></path>
    </g>
    <path d="M71.253 22.557c.116 2.158-.465 3.63-.538 5.927-.11 3.34 1.592 7.162-.97 10.99" fill="none"></path>
  </symbol>
  <symbol viewBox="0 0 21794 13103" id="php">
    <ellipse fill="#777bb4" cx="10897" cy="6551" rx="10897" ry="6551"></ellipse>
    <path fill="#fff" fill-rule="nonzero" d="M6499 5204c140-148 316-273 528-374s441-152 686-152 463 53 653 158c191 105 339 255 444 449 105 195 158 422 158 683 0 113-12 231-35 356-59 323-176 612-354 867-176 254-392 453-647 595s-522 213-802 213c-246 0-455-50-628-149s-308-223-405-371l-351 1996h-665l835-4744h665l-82 473zm1757 1120c15-74 23-154 23-240 0-260-77-463-230-609-154-146-347-219-581-219-167 0-334 43-499 128-165 86-308 210-429 374-121 163-200 356-239 578-16 73-24 153-24 239 0 261 77 467 231 618 154 152 345 228 575 228 171 0 339-44 505-131 165-88 308-215 429-383 120-167 200-361 239-583zm3291-1646c323 0 582 91 776 272 195 181 292 438 292 773 0 89-10 198-29 327l-339 1896h-659l321-1797c16-109 23-187 23-234 0-213-59-377-178-490-118-113-283-169-493-169-253 0-466 77-639 231-173 153-283 374-330 662v-12l-321 1809h-665l765-4318h665l-263 1476c136-136 298-241 485-315 186-74 383-111 589-111zm2696 526c140-148 316-273 528-374s441-152 686-152 463 53 654 158c190 105 338 255 443 449 105 195 158 422 158 683 0 113-12 231-35 356-59 323-176 612-353 867-177 254-393 453-648 595s-522 213-803 213c-245 0-454-50-627-149s-308-223-405-371l-351 1996h-665l834-4744h666l-82 473zm1757 1120c15-74 23-154 23-240 0-260-77-463-230-609-154-146-347-219-581-219-167 0-334 43-499 128-166 86-309 210-429 374-121 163-200 356-239 578-16 73-24 153-24 239 0 261 77 467 231 618 153 152 345 228 575 228 171 0 339-44 505-131 165-88 308-215 429-383 120-167 200-361 239-583z"></path>
  </symbol>
  <symbol viewBox="0 0 23473 23473" id="restapi">
    <g fill="#de002a">
      <path d="M13168 18685c-417 0-781-26-1171-130-312-78-599-182-859-312-286-131-572-287-859-495-442-312-884-703-1301-1171-468-599-859-1223-1119-1926-338-859-520-1769-520-2706-26-1379 286-2732 884-3878 443-780 1067-1509 1796-2082 234-182 495-364 729-494 26-26 78-52 104-52 468-234 989-52 1223 416 234 469 26 1041-390 1276-131 78-339 208-521 338-520 416-963 937-1275 1509-468 833-703 1874-676 2941 25 728 155 1405 390 2056 208 494 468 963 833 1379 260 338 598 624 936 859 182 129 365 234 547 338 182 78 338 130 520 182 1041 234 2238-78 3305-885 598-442 1119-1015 1509-1665 521-885 885-1926 1015-2967 52-598 79-1223 26-1926-51-988-182-1848-416-2628-390-1353-989-2498-1847-3409-261-312-547-573-833-781-417-312-495-911-183-1327 313-416 885-494 1302-182 390 286 755 624 1119 1015 1041 1119 1795 2524 2264 4164 260 911 416 1899 468 3018 52 833 52 1562-26 2264-182 1327-598 2629-1275 3722-520 858-1197 1613-2004 2212-1145 885-2446 1327-3695 1327z"></path>
      <path d="M7833 22744c-208 0-391-51-546-181-443-313-807-625-1171-990-1068-1145-1848-2602-2291-4241-260-990-442-2030-494-3175-52-677-26-1354 52-2082 130-1353 546-2654 1145-3695 469-833 1119-1588 1874-2212 546-417 1145-755 1770-963 884-338 1873-443 2810-313 338 52 703 131 1041 261h0c52 26 130 52 208 104h26l130 78c234 104 469 260 677 390 26 0 78 52 78 52 989 703 1743 1640 2264 2733 416 937 650 2004 650 3123 27 1196-208 2315-676 3330-599 1276-1588 2369-2811 3071-442 260-1015 104-1249-364-260-442-104-1015 339-1275 858-495 1587-1302 2003-2212 365-755 521-1640 521-2524-26-859-183-1692-495-2369-364-780-937-1483-1639-1977-157-104-312-209-495-313l-104-52c-52-26-78-52-130-52-208-78-390-104-572-130-677-104-1327-26-1926 182a5962.1 5962.1 0 0 0-1249 703c-573 442-1067 1015-1405 1639-495 859-807 1874-911 2967-78 625-78 1223-52 1796 52 1015 208 1925 416 2784 390 1353 1015 2524 1848 3435 286 261 572 521 911 755 416 312 520 911 208 1327-182 260-469 390-755 390zm3930-16681h0 0z"></path>
    </g>
    <path fill="#583689" d="M11737 23473C5257 23473 0 18217 0 11737S5257 0 11737 0s11737 5257 11737 11737-5257 11736-11737 11736zm0-21600c-5439 0-9864 4425-9864 9864 0 5438 4425 9863 9864 9863 5438 0 9863-4425 9863-9863 0-5439-4425-9864-9863-9864z"></path>
  </symbol>
  <symbol fill="#61dafb" viewBox="175.7 78 490.6 436.9" id="react">
    <path d="M666.3 296.5c0-32.5-40.7-63.3-103.1-82.4 14.4-63.6 8-114.2-20.2-130.4-6.5-3.8-14.1-5.6-22.4-5.6v22.3c4.6 0 8.3.9 11.4 2.6 13.6 7.8 19.5 37.5 14.9 75.7-1.1 9.4-2.9 19.3-5.1 29.4-19.6-4.8-41-8.5-63.5-10.9-13.5-18.5-27.5-35.3-41.6-50 32.6-30.3 63.2-46.9 84-46.9V78c-27.5 0-63.5 19.6-99.9 53.6-36.4-33.8-72.4-53.2-99.9-53.2v22.3c20.7 0 51.4 16.5 84 46.6-14 14.7-28 31.4-41.3 49.9-22.6 2.4-44 6.1-63.6 11-2.3-10-4-19.7-5.2-29-4.7-38.2 1.1-67.9 14.6-75.8 3-1.8 6.9-2.6 11.5-2.6V78.5c-8.4 0-16 1.8-22.6 5.6-28.1 16.2-34.4 66.7-19.9 130.1-62.2 19.2-102.7 49.9-102.7 82.3 0 32.5 40.7 63.3 103.1 82.4-14.4 63.6-8 114.2 20.2 130.4 6.5 3.8 14.1 5.6 22.5 5.6 27.5 0 63.5-19.6 99.9-53.6 36.4 33.8 72.4 53.2 99.9 53.2 8.4 0 16-1.8 22.6-5.6 28.1-16.2 34.4-66.7 19.9-130.1 62-19.1 102.5-49.9 102.5-82.3zm-130.2-66.7c-3.7 12.9-8.3 26.2-13.5 39.5-4.1-8-8.4-16-13.1-24-4.6-8-9.5-15.8-14.4-23.4 14.2 2.1 27.9 4.7 41 7.9zm-45.8 106.5c-7.8 13.5-15.8 26.3-24.1 38.2-14.9 1.3-30 2-45.2 2-15.1 0-30.2-.7-45-1.9-8.3-11.9-16.4-24.6-24.2-38-7.6-13.1-14.5-26.4-20.8-39.8 6.2-13.4 13.2-26.8 20.7-39.9 7.8-13.5 15.8-26.3 24.1-38.2 14.9-1.3 30-2 45.2-2 15.1 0 30.2.7 45 1.9 8.3 11.9 16.4 24.6 24.2 38 7.6 13.1 14.5 26.4 20.8 39.8-6.3 13.4-13.2 26.8-20.7 39.9zm32.3-13a428.56 428.56 0 0 1 13.8 39.8c-13.1 3.2-26.9 5.9-41.2 8 4.9-7.7 9.8-15.6 14.4-23.7 4.6-8 8.9-16.1 13-24.1zM421.2 430c-9.3-9.6-18.6-20.3-27.8-32 9 .4 18.2.7 27.5.7 9.4 0 18.7-.2 27.8-.7-9 11.7-18.3 22.4-27.5 32zm-74.4-58.9c-14.2-2.1-27.9-4.7-41-7.9 3.7-12.9 8.3-26.2 13.5-39.5 4.1 8 8.4 16 13.1 24s9.5 15.8 14.4 23.4zM420.7 163c9.3 9.6 18.6 20.3 27.8 32-9-.4-18.2-.7-27.5-.7-9.4 0-18.7.2-27.8.7 9-11.7 18.3-22.4 27.5-32zm-74 58.9c-4.9 7.7-9.8 15.6-14.4 23.7-4.6 8-8.9 16-13 24a428.56 428.56 0 0 1-13.8-39.8c13.1-3.1 26.9-5.8 41.2-7.9zm-90.5 125.2c-35.4-15.1-58.3-34.9-58.3-50.6s22.9-35.6 58.3-50.6c8.6-3.7 18-7 27.7-10.1 5.7 19.6 13.2 40 22.5 60.9-9.2 20.8-16.6 41.1-22.2 60.6-9.9-3.1-19.3-6.5-28-10.2zM310 490c-13.6-7.8-19.5-37.5-14.9-75.7 1.1-9.4 2.9-19.3 5.1-29.4 19.6 4.8 41 8.5 63.5 10.9 13.5 18.5 27.5 35.3 41.6 50-32.6 30.3-63.2 46.9-84 46.9-4.5-.1-8.3-1-11.3-2.7zm237.2-76.2c4.7 38.2-1.1 67.9-14.6 75.8-3 1.8-6.9 2.6-11.5 2.6-20.7 0-51.4-16.5-84-46.6 14-14.7 28-31.4 41.3-49.9 22.6-2.4 44-6.1 63.6-11 2.3 10.1 4.1 19.8 5.2 29.1zm38.5-66.7c-8.6 3.7-18 7-27.7 10.1-5.7-19.6-13.2-40-22.5-60.9 9.2-20.8 16.6-41.1 22.2-60.6 9.9 3.1 19.3 6.5 28.1 10.2 35.4 15.1 58.3 34.9 58.3 50.6-.1 15.7-23 35.6-58.4 50.6z"></path>
    <circle cx="420.9" cy="296.5" r="45.7"></circle>
  </symbol>
  <symbol viewBox="0 0 512 512" id="github">
    <rect width="512" height="512" fill="#171515" rx="15%"></rect>
    <path fill="#fff" d="M119 255c17 30 49 48 102 53-8 6-17 17-18 30-10 6-29 8-44 3-21-7-29-48-61-42-7 1-6 6 0 10 10 6 21 16 26 30 12 31 37 39 77 33v45c0 14-20 18-20 25 0 3 7 3 12 3 10 0 32-9 32-23 0-12 0-52 1-59 0-15 8-20 8-20s1 82-2 92c-4 13-10 11-10 17 0 9 26 2 35-17 7-15 4-95 3-94h7s0 37 1 53c0 17-1 39 9 50 7 7 29 19 29 8 0-6-12-12-12-29v-79c10 0 8 26 8 26l1 48s-2 18 19 25c8 3 24 3 25-1s-20-11-20-25v-49c0-36-5-49-22-60 53-5 86-18 102-53 10-20 12-44 12-62 0-50-24-67-29-76 7-38-1-55-5-60-14-5-48 12-66 24-30-9-94-8-118 2-44-31-67-26-67-26s-15 27-4 66c-15 18-25 31-26 65 0 27 3 44 15 67z"></path>
  </symbol>
  <symbol viewBox="0 0 129 129" id="svg">
    <path fill="#f90" d="M0 0h129v129H0z"></path>
    <path fill="#de8500" d="M64 64h65v65H64z"></path>
    <path fill="#ffb13b" d="M0 0h64v64H0z"></path>
    <g fill="#f90">
      <circle cx="24" cy="64" r="24"></circle>
      <circle cx="36" cy="36" r="24"></circle>
      <circle cx="64" cy="24" r="24"></circle>
      <circle cx="93" cy="36" r="24"></circle>
      <circle cx="105" cy="64" r="24"></circle>
      <circle cx="93" cy="93" r="24"></circle>
      <circle cx="64" cy="105" r="24"></circle>
      <circle cx="36" cy="93" r="24"></circle>
    </g>
    <path d="M81 24c0-10-7-17-17-17-9 0-16 7-16 17-7-7-18-7-24 0-7 6-7 17 0 23-9 0-17 8-17 17 0 10 8 17 17 17-7 7-7 17 0 24 6 6 17 6 24 0 0 9 7 17 16 17 10 0 17-8 17-17 7 6 18 6 24 0 7-7 7-17 0-24 9 0 17-7 17-17 0-9-8-17-17-17 7-6 7-17 0-23-6-7-17-7-24 0z"></path>
    <path fill="#fff" d="M71 30v19l13-13c0-3 1-5 3-7 3-3 9-3 13 0 3 4 3 9 0 13-2 2-4 3-7 3L80 58h19c1-2 4-3 6-3a8.96 8.96 0 0 1 9 9 8.96 8.96 0 0 1-9 9c-2 0-5-1-6-2H80l13 13c3 0 5 1 7 3 3 3 3 9 0 12-4 4-10 4-13 0-2-1-3-4-3-6L71 80v18c2 2 3 4 3 7 0 5-4 9-10 9a8.96 8.96 0 0 1-9-9c0-3 1-5 3-7V80L45 93c0 2-1 5-3 6-3 4-9 4-13 0-3-3-3-9 0-12 2-2 4-3 7-3l13-13H30c-1 1-4 2-6 2a8.96 8.96 0 0 1-9-9 8.96 8.96 0 0 1 9-9c2 0 5 1 6 3h19L36 45c-3 0-5-1-7-3-3-4-3-9 0-13 4-3 10-3 13 0 2 2 3 4 3 7l13 13V30c-2-2-3-4-3-6a8.96 8.96 0 0 1 9-9c6 0 10 4 10 9 0 2-1 4-3 6h0z"></path>
    <path d="M7 64h115v58H7z"></path>
    <path d="M7 97h115v25H7z"></path>
    <path fill="#3f3f3f" d="M19 70h92c4 0 7 3 7 7v23C82 95 47 89 12 90V77c0-4 3-7 7-7h0z"></path>
    <path fill="#fff" d="M49 104c0-2 0-5-2-7 0-1-1-2-2-3 0-1-1-1-1-1-1-1-2-2-4-3-2 0-4-1-6-1h0 0c-1 0-3 0-4-1h0v-1h-1c0-1-1-3-1-4 0-3 3-6 6-6s5 1 6 3v1c0 1 1 1 1 2h8c0-3-1-7-3-9v-1c-1-1-2-2-3-2s-1-1-1-1h-1c-2-1-4-2-7-2-2 0-4 1-6 2-2 0-3 1-4 3h-1c-2 2-3 5-3 8-1 0-1 1-1 2 0 2 1 3 1 4v1s1 1 1 2c1 1 2 3 3 4s2 2 3 2l1 1c2 1 4 1 6 1s4 1 5 2c0 0 0 1 1 1 0 1 1 2 1 3 0 3-2 5-4 6 0 0-1 1-3 1-1 0-3-1-4-2s-2-3-2-5h-5-4c0 3 1 6 2 8 3 4 8 7 13 7 4 0 7-1 10-3l1-1c2-2 3-3 3-5 1-2 1-4 1-6z"></path>
    <path fill-rule="nonzero" d="M48 104v-3c-1-2-1-3-2-4 0 0 0-1-1-1 0-1-1-1-1-1h0 0 0v-1h-1c0-1-1-1-1-1-1-1-2-1-2-1-1-1-2-1-3-1h-3-1v-1h-1c-1 0-2-1-3-1h0v-1h-1v-1s-1-1-1-2v-2c0-2 1-4 2-5s3-2 5-2 3 0 4 1c1 0 2 1 3 2v1 1c1 0 1 1 1 1h6c0-1 0-2-1-3 0-2-1-3-2-5-1 0-1-1-1-1-1-1-1-1-2-1v-1h0-1-1c0-1-1-1-2-1s-3-1-4-1-2 1-3 1-2 0-3 1c0 0-1 1-2 1l-2 2c-1 1-2 2-2 3-1 1-1 3-1 4v1 1 2 2c0 1 0 1 1 1v1c0 1 1 1 1 2l2 2 1 1c1 1 1 1 2 1 1 1 2 1 3 2h3 0 3c1 1 2 1 3 2h0v1s1 0 1 1c0 0 0 1 1 1v2c0 2-1 3-1 4l-3 3s-1 0-2 1h-2c-1 0-2 0-2-1-1 0-2-1-3-1-1-1-1-2-1-3-1 0-1-1-1-1h-4-2v2c0 1 1 2 1 3 2 2 3 4 5 5s5 2 7 2 3 0 5-1c1 0 3-1 4-2h1v-1l2-2c0-1 1-2 1-3 1 0 1-1 1-2v-3zm2-4c0 1 1 3 1 4s0 2-1 3v3c-1 1-1 2-2 3 0 1-1 2-2 2 0 1 0 1-1 1 0 1 0 1-1 1-1 1-3 2-4 3-2 0-4 1-6 1-3 0-5-1-8-3-2-1-4-3-6-6 0-1-1-2-1-4-1-1-1-2-1-4v-1h1 4 5 1v1c0 1 1 2 1 2 0 1 0 1 1 2l1 1h2 2 1l2-2v-3-1-1l-1-1c-1-1-1-1-2-1 0 0-1-1-2-1h0-3c-2 0-3-1-4-1v-1c-1 0-2 0-2-1-1 0-2-1-2-1h0c-1-1-1-2-2-2 0-1-1-2-1-3l-1-1v-1c0-1-1-2-1-3v-2-1-2c1-1 1-3 2-4 0-1 1-2 2-3v-1h1c0-1 1-1 2-2s1-1 2-1c1-1 2-1 4-2h3 4c1 1 2 1 4 2h1 0v1c1 0 2 1 2 1 1 0 1 1 2 2s2 3 3 5c0 1 1 3 1 5v1h-2-8-2v-1-1-1c-1-1-1-2-2-2-1-1-2-1-3-1s-2 1-3 2-2 2-2 3 0 1 1 2v1h1v1h0 0s1 0 1 1h2 0 2 0 1c2 1 3 1 3 1 1 1 2 1 3 1l2 2 1 1h0 0l1 1c1 1 1 1 1 2 1 1 2 3 2 4zM31 87h0z"></path>
    <path fill="#fff" d="M55 97l1 4 1 3 1 8 2 7h4 5l1-7 2-8 1-3v-4l1-3 2-9v-1l2-9 1-5v-2h-8l-1 2-2 11-3 12v4l-1 1v-1l-1-4-2-11-3-12v-2h-9l1 2 1 5 2 9v1l1 7z"></path>
    <path fill-rule="nonzero" d="M56 96l1 5 1 3 2 7 1 7h3 4l1-6 2-9v-2l1-5 1-2 2-9v-1l2-9 1-6h0-6l-1 1-2 12-2 11-1 4v1h-3v-1l-1-4-2-11-3-12v-1h-6 0l1 5 2 10v1l1 6 1 5zm-1 5l-1-4-1-5-1-7h0l-2-10-2-5v-2-1h1 9 1v1l1 1 2 12 2 11 3-11 2-12v-1l1-1h1 8 2v1l-1 2-1 5-2 10h0l-2 9v3l-1 4-1 3-1 8-2 8v1h-1-5-4-1v-1l-2-8-1-8-1-3z"></path>
    <path fill="#fff" d="M79 88v7 2 7c0 2 1 4 1 6 1 2 2 3 3 4l2 2c3 2 6 3 9 3 6 0 11-3 13-7 2-2 2-5 2-8v-5-1-1-8h-7-8v8h0v1h7 0v6c0 2-1 4-2 5-2 1-3 2-5 2-1 0-2-1-3-1-2-1-3-3-3-6v-3-4-1-13c0-1 0-1 1-2v-1c1-2 3-3 5-3 4 0 7 3 7 6h6 2v-2c0-3-2-6-3-8-1 0-1 0-1-1-1-1-3-2-4-2-2-1-4-2-7-2-2 0-4 1-6 2h-1c-1 0-1 1-1 1-1 0-2 1-3 2v1c-2 2-4 5-4 9h0v4 1z"></path>
    <path fill-rule="nonzero" d="M81 88v7 2 7 3c0 1 0 2 1 3 0 0 0 1 1 2 0 0 1 1 1 2 0 0 1 0 1 1h1c1 1 2 2 4 2 1 1 3 1 4 1 3 0 5-1 7-2s4-3 5-5c1-1 1-2 2-3v-4-5-1-1-6h-6-6v6h0 0 5 1v1h0v6c0 1 0 2-1 3 0 1-1 2-2 3 0 0-1 1-2 1-1 1-2 1-3 1h-2c0-1-1-1-1-1-2-1-2-2-3-3s-1-2-1-4v-3-4-1-13-1-1c0-1 1-1 1-1v-1c1-1 2-2 3-2 1-1 2-1 3-1 2 0 4 1 6 2 1 1 1 2 2 4h5 1v-1c0-1-1-3-1-4-1-1-1-2-2-3h-1v-1s-1-1-2-1c0-1-1-1-2-1 0-1-1-1-2-1s-3-1-4-1-2 1-3 1-2 0-3 1h-1v1c-1 0-1 0-2 1l-1 1c-1 2-2 3-3 4v5h0v4 1zm-3 7v-7-1-3h0v-1c0-2 0-4 1-5 1-2 2-4 3-5v-1c1 0 1-1 2-1 0-1 1-1 1-1s1 0 1-1h1c1-1 2-1 4-2h3 4c1 1 2 1 4 2 0 0 1 0 2 1l2 2s1 0 1 1c1 1 1 2 2 3 1 2 1 3 1 4s1 1 1 2v1 1h-2-2-6-2v-1c0-1 0-2-1-3s-2-2-4-2c0 0-1 0-2 1-1 0-1 1-2 1v1 1h-1v1 13 1 4 3c0 1 1 2 1 3s1 1 2 2h1 1 2c1 0 1-1 2-1 0 0 1-1 1-2v-2-5h-5-1v-1-1h0v-8-1h1 8 7 2v1 8 1 1 5c0 2-1 3-1 5 0 1-1 2-2 4s-3 4-6 5c-2 2-5 3-8 3-1 0-3-1-5-1-2-1-3-2-5-3l-1-1-1-1s-1-1-1-2c-1-1-1-2-2-2 0-1 0-2-1-3v-4-7-2z"></path>
  </symbol>
  <symbol viewBox="0 0 120 60" id="expressjs">
    <path d="M40 41.753V18.708h1.25v3.625a4.74 4.74 0 0 0 .408-.511c1.044-2.166 3.246-3.533 5.65-3.506 2.85-.085 5.166.97 6.527 3.506a11.27 11.27 0 0 1 .272 10.331c-1.268 2.842-4.4 4.255-7.753 3.736a6.27 6.27 0 0 1-5.004-3.302v9.165zm1.25-14.893l.28 2.706c.494 3.08 2.315 4.9 5.174 5.242a5.88 5.88 0 0 0 6.459-3.736c1.112-2.65 1.03-5.65-.22-8.238a5.76 5.76 0 0 0-6.068-3.353 5.61 5.61 0 0 0-5.012 4.144 28.62 28.62 0 0 0-.613 3.234zm39.498 3.132a6.74 6.74 0 0 1-6.587 5.957c-5.242.264-7.702-3.217-8.093-7.234a11.59 11.59 0 0 1 1.021-6.383 7.12 7.12 0 0 1 7.412-3.974 6.81 6.81 0 0 1 6.042 5.183 34.97 34.97 0 0 1 .587 3.83H67.363c-.255 3.642 1.702 6.57 4.476 7.276 3.455.85 6.408-.647 7.48-3.932.238-.843.672-.962 1.438-.723zm-13.395-3.787h12.314c-.077-3.88-2.493-6.7-5.77-6.732-3.7-.06-6.383 2.647-6.544 6.732zm15.94 3.872H84.5a4.84 4.84 0 0 0 2.842 4.17 7.43 7.43 0 0 0 6.451-.17 2.9 2.9 0 0 0 1.702-2.851 2.63 2.63 0 0 0-1.77-2.63c-1.328-.494-2.74-.766-4.093-1.2a30 30 0 0 1-4.119-1.506c-2.18-1.064-2.315-5.208.153-6.52a8.69 8.69 0 0 1 8.306-.128c1.594.88 2.475 2.657 2.213 4.46H95.15c0-.05-.094-.094-.094-.145-.128-3.3-2.902-4.332-5.88-4.042-.9.1-1.753.372-2.553.774a2.55 2.55 0 0 0-1.48 2.553 2.55 2.55 0 0 0 1.702 2.4c1.3.477 2.68.783 4.025 1.157l3.25.85a3.84 3.84 0 0 1 2.638 3.464c.26 1.745-.63 3.46-2.204 4.255-2.842 1.608-7.523 1.183-9.608-.85-1.067-1.073-1.662-2.53-1.65-4.042zm28.78-6.374h-1.132c0-.153-.06-.3-.077-.417a3.7 3.7 0 0 0-3.013-3.557 7.43 7.43 0 0 0-4.774.23 2.9 2.9 0 0 0-2.102 2.766 2.67 2.67 0 0 0 2.042 2.689l5.174 1.328a14.39 14.39 0 0 1 1.65.502c1.65.6 2.77 2.132 2.82 3.883a4.25 4.25 0 0 1-2.6 4.04 9.47 9.47 0 0 1-7.659.077 5.31 5.31 0 0 1-3.2-5.157h1.106c.416 2.005 1.793 3.675 3.682 4.465s4.046.596 5.764-.516a3.04 3.04 0 0 0 1.634-2.842 2.63 2.63 0 0 0-1.796-2.613c-1.328-.494-2.74-.757-4.093-1.2a30.15 30.15 0 0 1-4.144-1.489c-2.128-1.047-2.298-5.157.128-6.468a8.57 8.57 0 0 1 8.442-.094 4.45 4.45 0 0 1 2.136 4.366zm-74.13 11.83a1.95 1.95 0 0 1-2.417-.919l-4.4-6.085-.638-.85-5.106 6.944a1.87 1.87 0 0 1-2.298.902l6.578-8.825-6.12-7.974c.908-.328 1.92.028 2.425.85l4.56 6.16 4.587-6.136a1.83 1.83 0 0 1 2.281-.851L35.02 21.9l-3.217 4.187a.85.85 0 0 0 0 1.268l6.127 8.178zm27.93-16.892v1.2a6.17 6.17 0 0 0-6.57 6.374q0 4.204 0 8.408v.953h-1.217v-16.86h1.2v3.455c1.472-2.52 3.744-3.455 6.595-3.523zM7.333 26.59l.536-2.647c1.472-5.234 7.472-7.412 11.6-4.17 2.417 1.898 3.02 4.587 2.902 7.617H8.754c-.22 5.412 3.685 8.68 8.68 7.012 1.646-.6 2.885-1.968 3.293-3.668.264-.85.7-.996 1.498-.75a6.91 6.91 0 0 1-3.302 5.047 8 8 0 0 1-9.319-1.191c-1.216-1.367-1.95-3.095-2.093-4.92 0-.3-.1-.58-.17-.85q-.01-.757-.01-1.48zm1.438-.366h12.314c-.077-3.923-2.553-6.706-5.855-6.732-3.676-.05-6.306 2.672-6.468 6.715z"></path>
  </symbol>
  <symbol viewBox="0 0 32 32" id="mongodb">
    <path d="M15.9.087l.854 1.604c.192.296.4.558.645.802.715.715 1.394 1.464 2.004 2.266 1.447 1.9 2.423 4.01 3.12 6.292.418 1.394.645 2.824.662 4.27.07 4.323-1.412 8.035-4.4 11.12-.488.488-1.01.94-1.57 1.342-.296 0-.436-.227-.558-.436-.227-.383-.366-.82-.436-1.255-.105-.523-.174-1.046-.14-1.586v-.244C16.057 24.21 15.796.21 15.9.087z" fill="#599636"></path>
    <path d="M15.9.034c-.035-.07-.07-.017-.105.017.017.35-.105.662-.296.96-.21.296-.488.523-.767.767-1.55 1.342-2.77 2.963-3.747 4.776-1.3 2.44-1.97 5.055-2.16 7.808-.087.993.314 4.497.627 5.508.854 2.684 2.388 4.933 4.375 6.885.488.47 1.01.906 1.55 1.325.157 0 .174-.14.21-.244a4.78 4.78 0 0 0 .157-.68l.35-2.614L15.9.034z" fill="#6cac48"></path>
    <path d="M16.754 28.845c.035-.4.227-.732.436-1.063-.21-.087-.366-.26-.488-.453-.105-.174-.192-.383-.26-.575-.244-.732-.296-1.5-.366-2.248v-.453c-.087.07-.105.662-.105.75a17.37 17.37 0 0 1-.314 2.353c-.052.314-.087.627-.28.906 0 .035 0 .07.017.122.314.924.4 1.865.453 2.824v.35c0 .418-.017.33.33.47.14.052.296.07.436.174.105 0 .122-.087.122-.157l-.052-.575v-1.604c-.017-.28.035-.558.07-.82z" fill="#c2bfbf"></path>
  </symbol>
  <symbol viewBox="0 0 32 32" id="firebase">
    <path d="M19.62 11.558l-3.203 2.98-2.972-5.995 1.538-3.448c.4-.7 1.024-.692 1.414 0z" fill="#ffa000"></path>
    <path d="M13.445 8.543l2.972 5.995-11.97 11.135z" fill="#f57f17"></path>
    <path d="M23.123 7.003c.572-.55 1.164-.362 1.315.417l3.116 18.105-10.328 6.2c-.36.2-1.32.286-1.32.286s-.874-.104-1.207-.3L4.447 25.673z" fill="#ffca28"></path>
    <path d="M13.445 8.543l-8.997 17.13L8.455.638c.148-.78.592-.855.988-.167z" fill="#ffa000"></path>
  </symbol>
  <symbol version="1.1" viewBox="0 0 256 221" id="vuejs">
    <g>
      <path d="M204.8,0 L256,0 L128,220.8 L0,0 L50.56,0 L97.92,0 L128,51.2 L157.44,0 L204.8,0 Z" fill="#41B883"></path>
      <path d="M0,0 L128,220.8 L256,0 L204.8,0 L128,132.48 L50.56,0 L0,0 Z" fill="#41B883"></path>
      <path d="M50.56,0 L128,133.12 L204.8,0 L157.44,0 L128,51.2 L97.92,0 L50.56,0 Z" fill="#35495E"></path>
    </g>
  </symbol>
  <symbol fill="#318cc9" viewBox="0 0 3610 1549" id="ajax">
    <path d="M357 1221l117-269 118 269H474 357zm117-495H354L0 1523h231l69-173h174 175l69 173h231L595 726H474zm991-183l-158 156 14 14 56 51 41 37 51-52c39-38 53-52 56-52h5v302c0 338 1 316-14 346-16 32-43 55-76 67l-17 6-74 1c-84 1-92 0-119-13-28-14-48-34-61-63-11-23-13-32-14-79l-1-43h-107-106v35c0 64 4 99 14 129 30 83 100 143 189 161 16 3 30 3 184 3 153 0 168 0 184-3 89-18 160-79 189-162 13-38 12-15 13-368l3-319c2 0 30 24 63 52l60 52 31-31 60-65 6-6-156-156-157-156-159 156zm616 678l117-269 117 269h-117-117zm117-495h-120l-354 797h231l69-173h174 174l69 173h231l-354-797h-120zm-992 280l158-156-15-14c-8-8-33-31-56-51l-40-37-52 52c-38 39-52 52-56 52h-4V550c0-338-1-315 14-346s42-55 76-67l17-6 74-1c84 0 91 1 118 13 28 14 48 35 62 63 11 23 12 32 14 80l1 42h106 107v-35c0-64-4-99-15-128-29-84-100-144-188-162-16-3-31-3-184-3s-168 0-184 3c-90 19-160 79-190 162-13 38-12 15-13 368l-3 319c-1 0-29-23-62-52l-61-52-30 31c-29 30-49 51-61 65l-5 6 155 156 157 156c1 0 72-70 160-156zm1698 274l133-170c-13-18-68-88-133-170l-169-217 134-1h133l84 126 84 126 28-40c16-22 52-73 80-114l61-86 9-12h132c129 0 132 0 129 4-9 13-38 49-166 205l-143 179c0 1 65 81 143 178l166 206c3 3 0 3-129 3h-132l-9-11-61-87-80-114-28-40-84 126-84 126h-133c-74 0-134 0-134-1 0-2 34-45 169-216z"></path>
  </symbol>
  <symbol fill="none" viewBox="0 0 32 32" id="git">
    <path d="M2.585 17.413a2 2 0 0 1 0-2.826L14.587 2.585a2 2 0 0 1 2.826 0l12.001 12.001a2 2 0 0 1 0 2.826L17.413 29.415a2 2 0 0 1-2.826 0L2.585 17.413z" fill="#ee513b"></path>
    <path d="M12.149 5.062l-1.215 1.215 3.139 3.139c-.127.272-.198.576-.198.897 0 .91.572 1.686 1.375 1.989v7.679c-.803.303-1.375 1.079-1.375 1.989 0 1.174.951 2.125 2.125 2.125s2.125-.951 2.125-2.125c0-.825-.47-1.54-1.156-1.892v-7.765l3.001 3.001c-.121.267-.188.563-.188.875 0 1.174.951 2.125 2.125 2.125s2.125-.951 2.125-2.125-.951-2.125-2.125-2.125c-.228 0-.448.036-.654.102l-3.222-3.222c.062-.199.095-.411.095-.63 0-1.174-.951-2.125-2.125-2.125-.219 0-.431.033-.63.095l-3.221-3.221z" fill="#fff"></path>
  </symbol>
  <symbol viewBox="0 0 306 344.35" id="cpp">
    <path fill="#00599c" d="M302.107 258.262c2.401-4.159 3.893-8.845 3.893-13.053V99.14c0-4.208-1.49-8.893-3.892-13.052L153 172.175l149.107 86.087z"></path>
    <path fill="#004482" d="M166.25 341.193l126.5-73.034c3.644-2.104 6.956-5.737 9.357-9.897L153 172.175 3.893 258.263c2.401 4.159 5.714 7.793 9.357 9.896l126.5 73.034c7.287 4.208 19.213 4.208 26.5 0z"></path>
    <path fill="#659ad2" d="M302.108 86.087c-2.402-4.16-5.715-7.793-9.358-9.897L166.25 3.156c-7.287-4.208-19.213-4.208-26.5 0L13.25 76.19C5.962 80.397 0 90.725 0 99.14v146.069c0 4.208 1.491 8.894 3.893 13.053L153 172.175l149.108-86.088z"></path>
    <path d="M153 274.175c-56.243 0-102-45.757-102-102s45.757-102 102-102c36.292 0 70.139 19.53 88.331 50.968l-44.143 25.544c-9.105-15.736-26.038-25.512-44.188-25.512-28.122 0-51 22.878-51 51s22.878 51 51 51c18.152 0 35.085-9.776 44.191-25.515l44.143 25.543c-18.192 31.441-52.04 50.972-88.334 50.972zm102-107.667h-11.334v-11.333h-11.332v11.333H221v11.333h11.334v11.334h11.332v-11.334H255zm42.5 0h-11.334v-11.333h-11.332v11.333H263.5v11.333h11.334v11.334h11.332v-11.334H297.5z" fill="#fff"></path>
  </symbol>
  <symbol fill-rule="evenodd" viewBox="0 0 540 537" id="python">
    <path fill="#3778ae" d="M122 337s-2-76 76-76h129s73 1 73-71V72S411 0 268 0C131 0 140 59 140 59v62h131v19H88S0 130 0 268s77 133 77 133h45v-64zm74-248c-31 0-31-48 0-48s31 48 0 48z"></path>
    <path fill="#ffd94a" d="M213 277s-73-2-73 70v119s-11 71 132 71c137 0 129-59 129-59l-1-62H270v-18h182s88 10 88-129c0-138-76-133-76-133h-46v64s2 77-76 77H213zm131 219c-31 0-31-47 0-47s31 47 0 47z"></path>
  </symbol>
  <symbol fill-rule="evenodd" viewBox="0 0 540 437" id="sql-server">
    <path d="M341 298h0zm1 0v-7h3v-1h-7v1h3v7h1zm4-8v8h1v-6h0v-1 1l3 6h1l3-6v-1 1 6h1v-8h-1l-3 6-1 1h0v-1l-3-6h-1zM27 369h0zm17-26v-11c-10-5-34-6-42 10-6 14 0 24 19 35 11 7 16 12 16 18 0 13-15 17-31 9-3-1-5-3-6-3v12s5 2 12 4c18 3 34-5 35-19 2-12-3-19-20-29-12-7-17-12-16-18 2-17 22-14 33-8zm-10-22v-30h-4l-11 24h-1L8 291H3v30h4v-20-1c0-2 0-4-1-5h1l11 26h1l12-26h0l-1 26h4zm8-20v18h3v-18zm1-7c5 0 2-7-1-4-2 1-1 4 1 4zm23 6c-5-3-16-1-16 10s10 13 16 10v-4c-9 7-16-5-10-12 3-3 7-3 10-1v-3zm17-1c-3-1-7 0-8 5h0v-5h-3v22h3v-11h0c0-8 6-9 8-7v-4zm12 22h0zm0-22c-14 0-14 22 0 22s15-22 0-22zm-5 5c3-4 12-4 12 6 0 11-14 11-14 0 0-3 1-5 2-6zm32-4c-10-5-19 6-7 11 10 5 1 11-5 5v4c5 3 11-1 11-1 3-3 3-8-4-10-9-4-2-10 5-6v-3zm15-1c-14 0-14 22 0 22 12 0 13-14 8-19l-8-3zm7 11h0zm-14 0c0-10 10-10 12-6 1 1 2 3 2 6 0 12-14 11-14 0zm-33 19h0zm39 47c2-29-13-47-39-47-17 0-30 8-37 23-6 13-5 30 0 43 6 13 15 20 32 22 5 1 14 13 20 20h14l-19-21c0-2 15-1 24-20 4-8 5-11 5-20zm-26 29h0zm-14-67c18 0 28 11 30 31 1 17-5 30-16 36-7 3-18 4-24 1-7-2-14-10-17-18-3-9-3-25 1-33 6-12 14-17 26-17zm54-8v85h45v-10h-35v-37-38zm343 25v60h10v-19c0-18 1-20 3-25 3-6 9-10 15-8l4 1v-11h-5c-10 0-13 6-17 12v-10h-10zm-336-56c0-3-1-8 3-8 1 0 2 1 3 1v-3c-3-1-10 0-10 7v3h-3v3h3v19h4v-19h5v-3h-5zm10 16h0zm0-21v5h-3v3h3v13c0 8 7 7 9 6v-3c-1 0-5 2-5-4v-12h5v-3h-5v-6l-4 1zm78 75h0zm-24-27c-7 14-1 24 18 35 11 7 16 12 16 18 0 13-15 17-30 9-4-1-6-3-6-3-1 4-1 12-1 12s5 2 12 4c18 3 34-5 35-19 2-12-3-19-20-29-12-7-17-12-16-18 2-17 22-14 33-8v-11c-10-5-34-6-41 10zm80 11c-31 0-36 42-21 56 12 9 22 10 37 5l5-2v-10c-12 6-24 10-32 2-5-4-7-10-8-16h43v-8c0-17-10-27-24-27zm14 27h-32c3-17 17-22 26-15 5 4 6 15 6 15zm48-26h0zm-27 1v60h11v-19c0-18 0-20 2-25 4-6 10-10 15-8l4 1v-10h-5c-9 0-12 5-16 11v-10h-11zm121-2c-30 0-35 42-20 56 12 9 22 10 36 5l5-2v-10c-11 6-23 10-32 2-4-5-6-10-7-16h43v-8c0-17-10-27-25-27zm-17 26c3-16 16-21 26-14 5 4 6 14 6 14h-32zm98-24c1 1 1 2 1 4 0 1 0 3-1 4s-3 1-4 1c-2 0-3 0-4-1s-1-3-1-4c0-2 0-3 1-4s2-1 4-1c1 0 3 0 4 1zm-10 4c0 2 0 3 2 4 1 1 2 2 4 2s3-1 4-2 2-2 2-4-1-3-2-4h0c-1-2-2-2-4-2s-3 0-4 2c-2 1-2 2-2 4zm7 0h0zm1-1s1 0 1-1-1-1-1-1c-1-1-1-1-2-1h-3v8h2v-4h0c1 0 1 1 2 2v2h2l-1-2c-1-1-1-2-1-2s1 0 1-1zm-1-1c0 1 0 2-1 2h-1v-3h1 1v1zm-351-59h1 1s1 0 1 1-1 1-2 1h-1v-2h0zm4 1c0-1-1-1-1-2h-2-2v7h1v-3h0 1s0 1 1 2l1 1h1l-1-2-1-1s1 0 1-1l1-1zm-7-2c1-1 3-2 4-2 2 0 3 1 4 2s2 2 2 4c0 1-1 2-2 3-1 2-2 2-4 2-1 0-3 0-4-2-1-1-1-2-1-3 0-2 0-3 1-4zm4-2c-2 0-3 0-4 1-1 2-2 3-2 5 0 1 1 3 2 4s2 2 4 2h0c2 0 3-1 4-2 2-1 2-3 2-4 0-2 0-4-2-5-1-1-2-1-4-1z"></path>
    <path d="M324 308h0zm-11 29s0-1 1-2c3-7 10-27 10-27h0c-1 0-2 0-3 1-20 9-31 12-55 17l-7 2 36 6 18 3zm-52-12c19-6 43-13 50-15 5-2 12-4 12-4l-1-1c-7 0-18-2-25-4s-11-3-17-5c-3-1-4-2-5-2l-2 4c-6 9-12 17-19 25-1 2-2 3-2 3l2 1s3-1 7-2zm-11-2l18-28h-3c-7 2-18 6-38 11-7 2-13 4-14 4 0 0 5 3 8 5 3 1 7 3 11 4l16 6 2-2zm-39-15l52-18c-1-1-2-1-3-1-9-2-21-6-28-10h-1l-22 28 2 1zm-2-6l17-25c-3-2-7-4-10-6l-27 6c-1 0-1 1 0 3 1 5 4 10 7 15 3 4 7 7 11 10l2-3zm-20-28l22-7c-5-4-9-8-12-12v-1c-6 6-10 13-10 19-1 1-1 1 0 1zm133 24c-9-1-20-2-32-3 11 4 22 7 34 9h1l2-6h-5zm5-143c14-5 26-10 40-14l-1-2-39 13c-5 4-5 4-4 4 0 0 2-1 4-1zm-13 3v-2l-7 3-27 11c-3 2-6 4-8 6l-3 3s1-1 4-2c2-1 5-3 7-4 7-3 17-7 28-11l6-3v-1z" fill="#a3acb7"></path>
    <path fill="#a91d22" d="M460 111c2 2 4 5 6 8v1l-4 1c-4 1-8 1-13 2 6-1 12-1 17-2h4l-8-8c-1-1-1-2-2-2z"></path>
    <path d="M371 355c8 20 15 40 23 60h10l12-30 12-30h-10l-10 25-8 24-9-24-9-25h-11z"></path>
    <path fill="#a3acb7" d="M307 240c9-5 18-10 25-15l9-6c0 11-1 24-3 36 0 2-1 3-1 3-7-2-15-5-23-10-4-2-11-6-11-6l4-2zm-5 6c9 6 24 11 35 14-7 4-26 12-47 20l-8 2s1-1 2-3c6-11 12-23 15-32v-2s1 0 3 1zm35 17zm-51 24c20-9 42-19 49-23 1-1 1-1 2-1 0 1-3 10-5 17-1 6-3 10-5 18h2c1 0 3-5 6-11 10-21 17-40 21-56 3-10 5-23 6-39v-24c0-8-1-15-2-21v-2c-3 1-5 2-7 3 1 3 2 25 2 25-1 0-8-5-13-8-4-3-13-8-14-9-2 0-4 1-5 1 0 1 1 1 3 2 9 6 22 13 27 15 2 1 2 1-2 3-8 6-18 12-31 17l-4 2s1-1 1-3c3-11 5-22 5-31v-4c-2 0-4 1-6 2v13c-1 6-2 12-5 19 0 2 0 3-1 3 0 1-6-6-8-8-3-4-6-8-8-12-1-2-2-5-3-6-1 1-3 2-4 2v2c2 4 5 9 8 13s7 8 10 11l2 2c1 0 1 0-7 3-10 4-24 9-36 13 0 0 0-1 1-2 6-9 14-25 18-36 1-2 2-4 2-5-1 0-1 0-2 1-16 7-32 14-46 22-9 5-13 7-16 9l-4 2h-1c-3 3-9 8-12 12-4 5-7 10-8 15-3 7-2 14 3 21 1-1 2-2 3-4 4-4 8-7 15-11 4-2 11-6 12-7v2c0 2-1 4-1 5 0 7 1 12 4 18l2 4-23 6c2 1 3 3 5 4l13-4c3 0 5-1 5-1l-8 11c2 1 3 1 5 2 0 0 0-1 1-1l7-9c8 8 14 13 23 19 2 0 3 1 3 1l-2 1c7 1 17 3 27 5-1-1-1-1-2-1-3-2-8-4-8-4l6-3zm-23-71s-2 5-5 9c-4 9-9 17-15 27l-2 4c-1 0-1 0-1-1-2-3-3-7-4-11-1-3 0-9 0-13 1-3 1-3 2-4 6-3 25-11 25-11zm13 65c-2 3-3 5-4 5 0 0-1-1-3-2-9-5-18-13-23-20l-1-1c18-4 28-8 44-14l3-2s0 1-1 2c-4 10-9 20-15 32z"></path>
    <path fill="#a91d22" d="M266 173c3-3 5-6 8-9 2-2 2-3 4-4 7-5 22-15 23-15 0 0-5 6-9 9-9 9-17 16-28 23l-2 1-1 1v-1c1 0 2-1 5-5zm14-3c10-8 19-16 26-25 1-1 1-2 1-2h1l1 2c2 3 4 7 5 11v2 1l-6 3c-11 4-21 8-28 11-2 1-5 3-7 4-3 1-4 2-4 2l3-3c2-2 5-4 8-6zm149-81zM237 195c14-8 30-16 48-23 0 0 1-1 2-1s3-1 4-2h0c7-2 13-5 20-8 2 0 3-1 5-1 2-1 4-2 6-2 0-1 0-1 1-1s3-1 5-1c8-3 16-6 25-8v-1c2 0 4-1 7-2h0c30-9 64-17 89-22-15 2-33 5-50 10h-3l4-4c14-13 20-21 27-36l2-4s1 0 3 1c10 6 20 13 28 21-1-2-2-3-3-4-9-11-19-20-32-27-18-10-41-18-70-23-5-1-17-4-27-5-2 0-4-1-7-1-10-2-18-3-25-4-3-1-5-1-8-2h-4c-2-1-3-1-5-1-1 0-3-1-5-1-4-1-9-2-13-2-1 0-1-1-2-1-3 0-7-1-10-3h-1c-3-1-7-3-8-6v2 2c1 1 2 3 4 5 0 0 20 20 23 22 11 13 16 26 16 43 0 11-2 21-7 33-9 20-29 43-60 68h1l4-2c3-2 7-4 16-9zm45-144zm1 2c0-1-1-2-1-2h3c7 2 21 5 30 6 1 0 3 1 3 1s-1 0-2 1c-1 0-7 4-9 5-5 4-10 7-13 10-1 2-2 3-2 3s-1-1-1-2c-1-6-5-15-8-22zm12 64c1-7 1-17-1-27v-2s6 1 10 2c5 1 16 5 16 5l-3 3c-6 5-11 10-18 16l-4 4v-1zm27-29c-5-2-12-4-19-6-4-1-7-2-7-2l8-8 17-14c1 1 1 2 2 5 2 7 2 14 2 21v4h0-3zm-34 55c1-3 2-7 3-10 1-1 1-2 1-2 1 0 2 1 3 1 3 2 5 4 7 6 1 0-1 1-2 2l-15 11c-4 3-4 3-3 2 3-4 4-7 6-10zm19-12c-3-3-6-5-9-7-1 0-2-1-2-1l14-12c4-4 13-11 13-11s-1 6-2 9c-2 5-5 13-8 18-1 1-2 3-3 4l-1 2-2-2zm27-46c-2 1-4 3-4 3v-3c0-9-2-17-5-25l-1-1c1 0 19 3 27 5 7 1 16 3 16 3 1 0 0 1-3 2-12 5-21 10-30 16zm11 27c-8 4-15 8-23 13l-4 2 1-2c4-7 7-16 9-25 0-1 1-1 1-1s6 3 11 5c4 2 10 5 10 6 0 0-2 1-5 2zm13-9s-1 0-3-1c-5-3-11-6-17-9-2 0-4-1-4-1s14-10 22-15c6-3 16-9 16-9s0 4-1 6c-1 7-6 17-11 26-1 2-2 3-2 3zm-41 52c0-5-1-10-3-15-1-2-2-3-1-3 0-1 14-8 22-13 5-3 14-7 14-7s-6 9-9 14l-18 22s-1 0-1 1c-2 2-3 4-3 4-1 0-1-1-1-2v-1zm10-3c12-11 22-23 30-35l2-2 2 1c5 4 11 8 16 12 2 2 7 6 8 7l1 1-4 1c-5 1-10 3-15 4-14 4-26 9-40 14-2 0-4 1-4 1-1 0-1 0 4-4h0zm44-39c-2-1-3-3-4-3l-1-1s8-3 14-6c10-4 24-9 34-12 6-2 12-3 12-3s-3 5-5 7l-16 21c-4 5-10 12-12 14-1 3-3 5-3 5s0-1-1-2c-5-8-11-14-18-20zm49-27c-19 4-36 9-52 16-1 0-2 1-2 1s0-1 1-3c5-10 8-20 8-30l1-1s8 2 13 3c10 4 22 8 30 12l4 1-3 1zM254 44l-2-2h0s1 1 2 1 3 1 6 2c2 0 4 1 6 1 3 1 5 2 5 2s5 15 6 20c1 2 1 4 1 4s0-1-1-2c-5-9-13-18-23-26z"></path>
    <path fill="#a3acb7" d="M280 12c6-2 23-9 24-10h0v3c1 6 3 12 5 19 1 5 1 5 0 4-5-1-26-5-41-7h-4c0-1 11-6 16-9zm25-12h0zm-43 23c10 3 34 8 47 9h3s-1 1-3 2c-6 3-13 7-18 10-2 1-2 1-3 1l8 2s0-1 1-1c4-2 9-6 13-9l3-2 1 1c1 4 6 13 7 15l7 1c-6-11-11-21-15-31-3-6-6-13-7-18l-1-3c-1 0-17 6-28 10-14 6-24 11-31 16-2 1-5 4-6 5 1 3 5 5 8 6v-1c0-3 4-8 11-12l15 19 10 2-5-4-16-16-3-2h2z"></path>
  </symbol>
  <symbol viewBox="0 0 512 512" id="docker">
    <rect width="512" height="512" rx="15%" fill="#fff"></rect>
    <path stroke="#066da5" stroke-width="38" d="M296 226h42m-92 0h42m-91 0h42m-91 0h41m-91 0h42m8-46h41m8 0h42m7 0h42m-42-46h42"></path>
    <path fill="#066da5" d="m472 228s-18-17-55-11c-4-29-35-46-35-46s-29 35-8 74c-6 3-16 7-31 7H68c-5 19-5 145 133 145 99 0 173-46 208-130 52 4 63-39 63-39"></path>
  </symbol>
  <symbol viewBox="0 0 442.37 270.929" id="nodejs">
    <defs>
      <clipPath id="a">
        <path d="M239.03 226.605l-42.13 24.317c-1.578.91-2.546 2.59-2.546 4.406v48.668c0 1.817.968 3.496 2.546 4.406l42.133 24.336c1.575.907 3.517.907 5.09 0l42.126-24.336c1.57-.91 2.54-2.59 2.54-4.406v-48.668c0-1.816-.97-3.496-2.55-4.406l-42.12-24.317c-.79-.453-1.67-.68-2.55-.68-.88 0-1.76.227-2.55.68"></path>
      </clipPath>
      <linearGradient id="b" x1="-.348" x2="1.251" gradientTransform="rotate(116.114 53.1 202.97) scale(86.48)" gradientUnits="userSpaceOnUse">
        <stop offset=".3" stop-color="#3E863D"></stop>
        <stop offset=".5" stop-color="#55934F"></stop>
        <stop offset=".8" stop-color="#5AAD45"></stop>
      </linearGradient>
      <clipPath id="c">
        <path d="M195.398 307.086c.403.523.907.976 1.5 1.316l36.14 20.875 6.02 3.46c.9.52 1.926.74 2.934.665.336-.027.672-.09 1-.183l44.434-81.36c-.34-.37-.738-.68-1.184-.94l-27.586-15.93-14.582-8.39c-.414-.24-.863-.41-1.32-.53zm0 0"></path>
      </clipPath>
      <linearGradient id="d" x1="-.456" x2=".582" gradientTransform="rotate(-36.46 550.846 -214.337) scale(132.798)" gradientUnits="userSpaceOnUse">
        <stop offset=".57" stop-color="#3E863D"></stop>
        <stop offset=".72" stop-color="#619857"></stop>
        <stop offset="1" stop-color="#76AC64"></stop>
      </linearGradient>
      <clipPath id="e">
        <path d="M241.066 225.953c-.707.07-1.398.29-2.035.652l-42.01 24.247 45.3 82.51c.63-.09 1.25-.3 1.81-.624l42.13-24.336c1.3-.754 2.19-2.03 2.46-3.476l-46.18-78.89c-.34-.067-.68-.102-1.03-.102-.14 0-.28.007-.42.02"></path>
      </clipPath>
      <linearGradient id="f" x1=".043" x2=".984" gradientTransform="translate(192.862 279.652) scale(97.417)" gradientUnits="userSpaceOnUse">
        <stop offset=".16" stop-color="#6BBF47"></stop>
        <stop offset=".38" stop-color="#79B461"></stop>
        <stop offset=".47" stop-color="#75AC64"></stop>
        <stop offset=".7" stop-color="#659E5A"></stop>
        <stop offset=".9" stop-color="#3E863D"></stop>
      </linearGradient>
    </defs>
    <path fill="#689f63" d="M218.647 270.93c-1.46 0-2.91-.383-4.19-1.12l-13.337-7.896c-1.992-1.114-1.02-1.508-.363-1.735 2.656-.93 3.195-1.14 6.03-2.75.298-.17.688-.11.993.07l10.246 6.08c.37.2.895.2 1.238 0l39.95-23.06c.37-.21.61-.64.61-1.08v-46.1c0-.46-.24-.87-.618-1.1l-39.934-23.04c-.37-.22-.86-.22-1.23 0l-39.926 23.04c-.387.22-.633.65-.633 1.09v46.1c0 .44.24.86.62 1.07l10.94 6.32c5.94 2.97 9.57-.53 9.57-4.05v-45.5c0-.65.51-1.15 1.16-1.15h5.06c.63 0 1.15.5 1.15 1.15v45.52c0 7.92-4.32 12.47-11.83 12.47-2.31 0-4.13 0-9.21-2.5l-10.48-6.04c-2.59-1.5-4.19-4.3-4.19-7.29v-46.1c0-3 1.6-5.8 4.19-7.28l39.99-23.07c2.53-1.43 5.89-1.43 8.4 0l39.94 23.08c2.58 1.49 4.19 4.28 4.19 7.28v46.1c0 2.99-1.61 5.78-4.19 7.28l-39.94 23.07c-1.28.74-2.73 1.12-4.21 1.12"></path>
    <path fill="#689f63" d="M230.987 239.164c-17.48 0-21.145-8.024-21.145-14.754 0-.64.516-1.15 1.157-1.15h5.16c.57 0 1.05.415 1.14.978.78 5.258 3.1 7.91 13.67 7.91 8.42 0 12-1.902 12-6.367 0-2.57-1.02-4.48-14.1-5.76-10.94-1.08-17.7-3.49-17.7-12.24 0-8.06 6.8-12.86 18.19-12.86 12.79 0 19.13 4.44 19.93 13.98.03.33-.09.65-.31.89-.22.23-.53.37-.85.37h-5.19c-.54 0-1.01-.38-1.12-.9-1.25-5.53-4.27-7.3-12.48-7.3-9.19 0-10.26 3.2-10.26 5.6 0 2.91 1.26 3.76 13.66 5.4 12.28 1.63 18.11 3.93 18.11 12.56 0 8.7-7.26 13.69-19.92 13.69m48.66-48.89h1.34c1.1 0 1.31-.77 1.31-1.22 0-1.18-.81-1.18-1.26-1.18h-1.38zm-1.63-3.78h2.97c1.02 0 3.02 0 3.02 2.28 0 1.59-1.02 1.92-1.63 2.12 1.19.08 1.27.86 1.43 1.96.08.69.21 1.88.45 2.28h-1.83c-.05-.4-.33-2.6-.33-2.72-.12-.49-.29-.73-.9-.73h-1.51v3.46h-1.67zm-3.57 4.3c0 3.58 2.89 6.48 6.44 6.48 3.58 0 6.47-2.96 6.47-6.48 0-3.59-2.93-6.44-6.48-6.44-3.5 0-6.44 2.81-6.44 6.43m14.16.03c0 4.24-3.47 7.7-7.7 7.7-4.2 0-7.7-3.42-7.7-7.7 0-4.36 3.58-7.7 7.7-7.7 4.15 0 7.69 3.35 7.69 7.7"></path>
    <path fill="#333" fill-rule="evenodd" d="M94.936 90.55c0-1.84-.97-3.53-2.558-4.445l-42.356-24.37c-.715-.42-1.516-.64-2.328-.67h-.438c-.812.03-1.613.25-2.34.67L2.562 86.105C.984 87.025 0 88.715 0 90.555l.093 65.64c0 .91.47 1.76 1.27 2.21.78.48 1.76.48 2.54 0l25.18-14.42c1.59-.946 2.56-2.618 2.56-4.44V108.88c0-1.83.97-3.52 2.555-4.43l10.72-6.174c.796-.46 1.67-.688 2.56-.688.876 0 1.77.226 2.544.687l10.715 6.172c1.586.91 2.56 2.6 2.56 4.43v30.663c0 1.82.983 3.5 2.565 4.44l25.164 14.41c.79.47 1.773.47 2.56 0 .776-.45 1.268-1.3 1.268-2.21zm199.868 34.176c0 .457-.243.88-.64 1.106l-14.548 8.386c-.395.227-.883.227-1.277 0l-14.55-8.386c-.4-.227-.64-.65-.64-1.106V107.93c0-.458.24-.88.63-1.11l14.54-8.4c.4-.23.89-.23 1.29 0l14.55 8.4c.4.23.64.652.64 1.11zM298.734.324c-.794-.442-1.76-.43-2.544.027-.78.46-1.262 1.3-1.262 2.21v65c0 .64-.34 1.23-.894 1.55-.55.32-1.235.32-1.79 0L281.634 63c-1.58-.914-3.526-.914-5.112 0l-42.37 24.453c-1.583.91-2.56 2.6-2.56 4.42v48.92c0 1.83.977 3.51 2.56 4.43l42.37 24.47c1.582.91 3.53.91 5.117 0l42.37-24.48c1.58-.92 2.56-2.6 2.56-4.43V18.863c0-1.856-1.01-3.563-2.63-4.47zm141.093 107.164c1.574-.914 2.543-2.602 2.543-4.422V91.21c0-1.824-.97-3.507-2.547-4.425l-42.1-24.44c-1.59-.92-3.54-.92-5.13 0l-42.36 24.45c-1.59.92-2.56 2.6-2.56 4.43v48.9c0 1.84.99 3.54 2.58 4.45l42.09 23.99c1.55.89 3.45.9 5.02.03l25.46-14.15c.8-.45 1.31-1.3 1.31-2.22 0-.92-.49-1.78-1.29-2.23l-42.62-24.46c-.8-.45-1.29-1.3-1.29-2.21v-15.34c0-.916.48-1.76 1.28-2.216l13.26-7.65c.79-.46 1.76-.46 2.55 0l13.27 7.65c.79.45 1.28 1.3 1.28 2.21v12.06c0 .91.49 1.76 1.28 2.22.79.45 1.77.45 2.56-.01zm0 0"></path>
    <path fill="#689f63" fill-rule="evenodd" d="M394.538 105.2c.3-.177.676-.177.98 0l8.13 4.69c.304.176.49.5.49.85v9.39c0 .35-.186.674-.49.85l-8.13 4.69c-.304.177-.68.177-.98 0l-8.125-4.69c-.31-.176-.5-.5-.5-.85v-9.39c0-.35.18-.674.49-.85zm0 0"></path>
    <g clip-path="url(#a)" transform="translate(-78.306 -164.016)">
      <path fill="url(#b)" d="M331.363 246.793l-118.715-58.19-60.87 124.174L270.49 370.97zm0 0"></path>
    </g>
    <g clip-path="url(#c)" transform="translate(-78.306 -164.016)">
      <path fill="url(#d)" d="M144.07 264.004l83.825 113.453 110.86-81.906-83.83-113.45zm0 0"></path>
    </g>
    <g clip-path="url(#e)" transform="translate(-78.306 -164.016)">
      <path fill="url(#f)" d="M197.02 225.934v107.43h91.683v-107.43zm0 0"></path>
    </g>
  </symbol>
</svg>